<svg xmlns="http://www.w3.org/2000/svg" xml:space="preserve" style="enable-background:new 0 0 195 154" viewBox="0 0 195 154"><defs><filter id="a" width="195" height="154" x="0" y="0" filterUnits="userSpaceOnUse"><feColorMatrix values="1 0 0 0 0 0 1 0 0 0 0 0 1 0 0 0 0 0 1 0"/></filter></defs><mask id="b" width="195" height="154" x="0" y="0" maskUnits="userSpaceOnUse"><g style="filter:url(#a)"><path d="M0 0h195v154H0z" style="fill-rule:evenodd;clip-rule:evenodd;fill:#fff"/></g></mask><path d="M69.3 35.6c-2.8-1.7-9.2-1.7-11.8 0 1.7.4 3 .7 4.6 1.1v8.1c0 6 0 6 1.9 7.3.6-5.2-.1-10.3.4-15.5 1.7-.4 3-.6 4.9-1zm52.3 12.3c4.1.2 8 0 10.7-3.9.3-.5.7-.9 1.1-1.3 3-2.9 3.7-5.2 2.6-9.6-1.3 4.4-4 7-8 8.7-1.7.7-3.2 1.8-4.7 2.8-.9.6-1.5 1.6-2.2 2.4.1.3.3.6.5.9zM98.4 35.4c-.3-.3-.5-.8-.8-.8-3-.2-5.9-.4-9 .1 0 6-.2 11.6.1 17.1 6.4.6 8.1.4 9.8-1.4-2.7-.2-5-.3-7.5-.5v-6.2c2.4-1 4.9.4 7-1.8-2.3-.2-4.6-.4-7-.7v-4.9h7c.1-.4.3-.6.4-.9zM83.9 52c.3-.5.9-1 .9-1.5-.1-5.3-.3-10.6-.5-15.8 0-.1-.6-.1-1.4-.2-.1 2.3-.3 4.5-.4 6.9-3.2.3-6.1.5-9.2-.2-.2-2.3-.3-4.4-.5-6.5-2-.4-1.9.8-1.9 1.9v13.6c0 .6.3 1.2.5 1.8.3 0 .6.1.9.1 1.8-2.5-.1-5.8 1.3-8.5 3-.2 6-.4 9.3.2v8.1c.4-.1.7 0 1 .1zm25.9-3.2c.1 2 .2 3.6.2 4.9 7.4-1.4 14.3-1.5 21.4.1v-5h-21.6zM140 23.3c15.7 10.1 27.1 23.7 33.9 41.1 1.1 2.9 1.9 5.9 2.9 8.9.4 1.3 1 2 2.4 1.4-.7-17.3-25.2-50.2-40.7-54.6-1 1.8.4 2.4 1.5 3.2zm-129.7 61c-.4.9-.4 2-.5 3.1-.5 6.7-.2 13.4.9 20.1 2.9 17.5 10.5 32.7 22.7 45.6.3.4.8.6 1.2.9.8-1.8.3-3-.7-4.1-1.5-1.6-2.9-3.3-4.3-5C16.7 128 10.9 109 12.3 87.8c.1-1.4 0-2.7 0-4.7-1 .5-1.8.7-2 1.2zm114-26.5c1.6-.3 2.8-.5 4.2-.7v-2.9h-15.4v2.9c1.4.3 2.6.5 4.2.8v19.8h7V57.8zM23 105.3h5.9c.1-3 .3-5.8.4-8.6 2.3-.1 4.3-.2 6.3-.3v-4.8c-2.3-.1-4.3-.3-6.6-.4.1-1.3.2-2.3.3-3.4 2.5-.1 4.7-.2 7.3-.4-.1-1.8-.2-3.2-.3-4.7H23v22.6zM129 17c0 2.2-.2 4.4-1.7 6.2-1.1 1.2-1.4 2.8-.6 4.2 1.3 2.3.4 3.9-1.3 5.5-1.5 1.4-2.9 3-4.2 4.7-2 2.7-2.6 5.9-2.2 9.3 2.3-3.1 5.6-4.5 8.8-6.2.9-.5 1.8-1.1 2.7-1.6 3.3-2.3 4.1-4.7 3.1-8.7-.3-1.2-.7-2.8-.1-3.6 1.4-2.2.9-4.1.1-6.3-.6-1.5-.8-3.1-1.3-4.7-.7-2.4-1.2-4.9-3.2-7.3-.1 3.1-.2 5.8-.1 8.5zM13.7 55.8H.5c-.8 3.9-.6 20.5.2 22.8h5.6c.2-3 .3-5.8.5-8.9h6.3v-4.9c-2.2-.2-4.2-.3-6.5-.5.1-1.3.1-2.2.2-3.5h6.9v-5zm45.1 52.7c-3 .1-6-.4-9 .3v43.8c1-.1 1.9-.2 3-.3v-22.4h14.5v-2.8H52.9v-15.9h14.9v-2.7c-3.3 0-6.2-.1-9 0zm-34-58.8c7.8-12.3 18.1-22 30.9-28.9 13.9-7.5 28.8-10.9 44.6-9.9 1.7.1 3.4 0 5 0 .5-1.4 0-2-1.2-2.2-1.5-.2-3-.4-4.5-.4-6.7-.3-13.6.1-20.3 1.5-24.5 5-43.4 18.2-56.8 39.1-.5.7-.8 1.6-1.2 2.4 2.2.4 2.3.4 3.5-1.6zm90.3-38.3c-1.5 1.1-3 2.1-4.5 3.3-4.5 3.5-5.3 7.1-2.7 12.2.3.5.5 1 .8 1.5 1.3 2 1.3 3.9-.1 6.1-2.7 4.2 0 9.3 5.4 10.4 0-1.3.2-2.6 0-3.8-.3-2-.2-3.8 1.4-5.4 1.7-1.7 1.5-3.6.2-5.7-2.6-4.2-2.5-5.3.8-9.2 3.1-3.7 3.8-8 3.2-13-1.8 1.4-3.1 2.5-4.5 3.6zM78.6 82.8c.2 7.6-.3 15.1.3 22.7h11.5c.4 0 .9-.2 1.5-.3v-4.6c-2.4-.2-4.6-.4-7.1-.5.2-1.4.4-2.4.5-3.3 2.4-.1 4.4-.3 6.4-.4v-4.7c-2.2-.2-4.3-.3-6.4-.4v-3.5c2.4-.1 4.6-.2 6.7-.3v-4.6H78.6zm-4.3 13.5v-4.7c-2.3-.1-4.4-.2-6.8-.4.1-1.4.2-2.4.4-3.7h6.9v-4.9c-4.6 0-8.9-.2-13.1.1-.6 5.5-.4 20 .3 22.6h12.8v-4.8c-2.5-.1-4.6-.2-6.9-.4v-3.4c2.2-.1 4.2-.3 6.4-.4zM116.5 46c.2-.3.4-.6.5-.9 1.1-5.1 3.8-9.4 7.4-13.1.5-.5.9-1.8.6-2.4-1.3-2.8-.2-5.1.7-7.6 1.9-5.5 2.4-11.1-.1-16.6-1.2-2.5-3-4.4-6.2-5.3.3.9.5 1.3.7 1.7 2.4 5.8 2.5 11.4-.8 17-.7 1.1-1.3 2.2-2.1 3.2-2.2 2.5-2.8 4.9-.5 7.7 1.1 1.4 1.9 3.4.8 4.9-2 2.7-2.5 5.5-2 8.6.1.5-.3 1.1-.3 1.7 0 .5.2 1.1.4 2 .5-.7.7-.8.9-.9zm66.1 36.8c-2.7 1.1-4.3 3.9-4.3 7 .1 3.1 1.2 4.6 4.5 5.8 1.1.4 2.2.7 3.3 1.1 1.2.4 2.3 1 2.1 2.4-.2 1.5-1.5 2-2.9 1.9-.9-.1-1.8-.3-2.7-.6-.9-.3-1.8-.9-2.8-1.4-.9 1.6-1.6 2.9-2.5 4.5 4.6 2.8 8.9 3.5 13.5 1.5 3.1-1.4 4.2-4.2 4.1-7.4-.1-3.1-2-4.8-4.8-5.7-1-.3-2-.6-3-1-1.1-.4-2.4-.8-2-2.3.4-1.6 1.8-1.6 3.1-1.4 1.1.2 2.2.6 3.4 1 .7-1.3 1.4-2.5 2.3-4.2-3.9-2-7.5-2.8-11.3-1.2zM74.2 119.5c0 7.1 0 14.1.2 21.2.1 4.6 2.3 8.3 6.5 10.3 2.3 1.1 4.8 2 7.2 2.3 8.9 1.2 16.5-4.8 16.8-13.5.3-10.1.1-20.1 0-30.2 0-.3-.3-.6-.4-.9h-2.3c-.1 1.4-.2 2.6-.2 3.9v22.6c0 1.5-.1 3-.2 4.5-.4 6.4-3.5 10-11.2 11-7.4.9-13-3.8-13.4-11.2-.1-1.6-.1-3.2-.1-4.9v-24c0-.7-.2-1.3-.4-2.1-.8 0-1.5.1-2.6.1.1 4 .1 7.5.1 10.9zm-28.1-47c.2 3.1 2.3 5.4 5.4 6.1 2.3.5 4.8.7 7.2.5 5-.4 7.8-3.3 8.1-8.3.2-2.5.1-5.1.1-7.6v-7.3h-6.3v3.7c0 3.2.1 6.5-.1 9.7-.1 3.3-1.6 4.8-4.3 4.8-2.5 0-3.9-1.6-4-4.7-.1-3.4 0-6.7-.1-10.1 0-1.1-.1-2.2-.2-3.5H46c0 5.7-.2 11.2.1 16.7zM50.8 90c0 1.8-1.2 2.5-4.5 2.4v-4.8c3.3-.2 4.5.5 4.5 2.4zm8.2 14.7c-2.1-2.7-4.2-5.4-6.4-8.3.9-.5 1.4-.9 2-1.3 2.7-1.8 3.1-4.5 2.5-7.4-.6-2.8-2.6-4.6-5.3-4.8-3.9-.3-7.8-.1-11.8-.1v22.4h6.1v-7.4c2 1.8 3.1 3.8 4.5 5.6.6.8 1.7 1.7 2.6 1.9 1.8.3 3.6.1 5.4.1.2-.2.3-.4.4-.7zm18.3-43.9c3.2-.4 4.5.3 4.5 2.2.1 1.9-1.1 2.7-4.5 2.8v-5zm13.2 17.6c-2.4-3-4.5-5.8-6.8-8.8.7-.4 1.1-.6 1.4-.9 2.9-2 4-4.4 3.3-7.8-.6-3-2.7-4.6-5.5-5.1-3.9-.6-7.8-.4-11.8-.1v22.8h5.8c.8-2.6-.2-5 .8-7.6 2 2.8 3.7 5.3 5.4 7.8 2.4-.1 4.8.6 7.4-.3zm11.9 9.5c2.9-.6 5.2.2 6.7 2.5 1.5 2.2 1.6 4.8.1 7.2-1.5 2.4-3.8 3.1-6.9 2.5V87.9zm5.5 17.1c5.1-.9 8.8-5.6 9-10.6.2-5-3.2-9.7-8.3-11.1-4.1-1.2-8.2-.5-12.4-.5v23c4.1-.3 8-.2 11.7-.8zm24-4.7c-3.9.2-7-2.7-7-6.6 0-3.2 2.9-6 6.4-6.1 3.7-.1 6.7 2.6 6.8 6 .1 3.7-2.6 6.5-6.2 6.7zm12.1-2.2c1.7-4.9.6-9.7-3.2-12.9-4.4-3.8-11.1-4.4-16.2-1.5-6 3.4-7.9 10.5-4.4 16.4 2.6 4.4 6.8 6.1 11.1 6.2 6.2-.1 10.9-3.3 12.7-8.2zm36.1 15.3c7.5 3.8 11.5 11.9 10.1 20.7-1.3 8-8 14.5-16.1 15.5-3.1.4-6.2.4-9.2.5-.8-2.9-1-34.2-.3-38.7 5.4-.3 10.6-.5 15.5 2zm-18.3 39.1c.7 0 1.5.2 2.3.1 3.4-.1 6.7 0 10.1-.4 9-1 16.2-7.1 18.5-15.6 2.5-9-.7-18.5-7.9-23.9-7.1-5.4-15.2-4.4-23.3-4.2-.7 4.3-.5 41.5.3 44zM36.3 67.1c-.1 3.8-3.2 6.7-7 6.6-3.6-.1-6.5-3.2-6.4-6.9.1-3.3 3.2-6 6.9-5.9 3.7 0 6.6 2.8 6.5 6.2zm-4.6 12.3c6.1-.7 10.5-5.1 11.2-11 .7-5.8-2.5-10.8-8.5-12.7-2.1-.7-4.6-1-6.8-.7-7.1.7-11.8 6.5-11.2 13.4.6 6.6 6 11.2 13.5 11.2.4 0 1.1-.1 1.8-.2zm119.5 41.9v12.2c0 4.1.2 8.2-.2 13.1-6.7-6.9-12.8-13.2-19-19.4-6.2-6.2-12-12.6-18.8-18.9v44.3c1-.1 1.9-.1 2.9-.2v-18.3c0-3.1-.1-6.3 0-9.4.1-2.9-.4-5.9.3-8.5 3.3 3.1 6.5 6 9.7 9.1 3.1 3.1 6.2 6.3 9.2 9.5l9.2 9.5c3 3.1 5.8 6.3 9.4 9.4.7-7.4.4-42.4-.4-45-.6 0-1.3.1-2.3.2v12.4zm24.7-16h-6.2c-.5-3.8-1.1-7.7-1.6-11.5-.2-.1-.4-.1-.7-.2-1.7 3.9-3.5 7.8-5.1 11.5-2 .8-2.9-.1-3.5-1.6-1.3-3.3-2.7-6.6-4.7-9.8-.6 3.8-1.2 7.6-1.9 11.5h-6c.9-7.6 2.6-14.8 3.8-22.4h6.3c1.4 3.5 2.9 7.1 4.7 11.6 1.9-4.3 3.5-7.9 5.1-11.6h6c1.7 7.2 2.5 14.6 3.8 22.5z" style="mask:url(#b);fill-rule:evenodd;clip-rule:evenodd;fill:#f9e8bf"/></svg>