<svg xmlns="http://www.w3.org/2000/svg" xmlns:xlink="http://www.w3.org/1999/xlink" id="a" viewBox="0 0 284.31 383.28"><defs><linearGradient id="d" x1="113.61" x2="174" y1="143.39" y2="143.39" gradientUnits="userSpaceOnUse"><stop offset="0" stop-color="#fff"/><stop offset=".07" stop-color="#f0f3f6"/><stop offset=".2" stop-color="#c9d5e1"/><stop offset=".36" stop-color="#95acc4"/><stop offset=".74" stop-color="#1a3148"/><stop offset="1" stop-color="#010101"/></linearGradient><linearGradient id="e" x1="150.76" x2="154.76" y1="120.37" y2="127.6" gradientUnits="userSpaceOnUse"><stop offset="0" stop-color="#fff"/><stop offset=".06" stop-color="#f4f7f9"/><stop offset=".16" stop-color="#d8e1e9"/><stop offset=".3" stop-color="#acbfd0"/><stop offset=".36" stop-color="#95aec4"/><stop offset=".74" stop-color="#1a3148"/><stop offset="1" stop-color="#010101"/></linearGradient><linearGradient xlink:href="#e" id="f" x1="162.9" x2="166.89" y1="113.65" y2="120.88"/><linearGradient xlink:href="#e" id="g" x1="153.44" x2="157.31" y1="156.61" y2="164.71"/><radialGradient id="b" cx="142.15" cy="142.15" r="109.77" fx="142.15" fy="142.15" gradientUnits="userSpaceOnUse"><stop offset=".44" stop-color="#fff"/><stop offset=".49" stop-color="#fefdf8"/><stop offset=".56" stop-color="#fef7e4"/><stop offset=".65" stop-color="#feefc5"/><stop offset=".75" stop-color="#fee399"/><stop offset=".86" stop-color="#fed360"/><stop offset=".98" stop-color="#fec11d"/><stop offset="1" stop-color="#febe10"/></radialGradient><clipPath id="c"><path d="M251.93 142.16c0 60.62-49.15 109.77-109.77 109.77S32.39 202.78 32.39 142.16 81.52 32.38 142.15 32.38s109.77 49.15 109.77 109.78Z" class="l"/></clipPath><style>.h{fill:url(#e)}.i{fill:url(#d)}.j{fill:url(#g)}.k{fill:url(#f)}.l{fill:url(#b)}.m{fill:#040000}.n,.o{fill:#fff}.p,.q{fill:#620A27}.o,.q{fill-rule:evenodd}.r{clip-path:url(#c)}</style></defs><path d="M5.89 149.35h268.72v233.93H5.89z" class="p"/><path d="M284.31 142.16c0 78.51-63.65 142.15-142.15 142.15S0 220.67 0 142.16 63.64 0 142.16 0s142.15 63.65 142.15 142.16Z" class="o"/><path d="M234.24 51.87c1.17.32.44 1.73 2.31 1.66-.4 2.41-3.12-.14-2.31-1.66ZM238.09 52.92c-.96.99-.33 1.28.52 1.86-.77 1.24-1.92-.49-1.66-1.48.39-.12.53-.65 1.14-.38ZM240.6 56.35c.82.34.85 1.13.85 1.95-1.27-.12-1.9-1.32-.85-1.95ZM60.14 36.91c-.25.81-1.4.43-1.69-.12.26-.81 1.4-.44 1.69.12ZM95.96 213.1c.8 1.34 3.56 1.58 3.56 3.37-1.45-.98-3.45-1.63-3.56-3.37ZM88.56 216.25c.61.22 1.13 1.84.12 2.1-1.25-.02-.1-1.39-.12-2.1Z" class="o"/><path d="M56.16 57.74c.25.22.25.3.04.54l-.82.89c-.17.19-.23.21-.46.14l-6.86-1.71c-1.13-.29-1.8-.48-2.53-.9l-.03.03c.18.16.9.74 1.52 1.31l4.86 4.41c.24.22.23.31.02.54l-.9.99c-.2.24-.29.25-.53.03l-8.69-7.88c-.25-.22-.24-.31-.03-.54l1-1.11c.19-.2.24-.2.46-.15l6.21 1.57c1.06.27 1.98.64 2.68.98l.02-.03c-.43-.39-1.41-1.21-1.79-1.55l-4.28-3.88c-.25-.22-.24-.32-.03-.55l.89-.98c.22-.23.3-.25.55-.04l8.68 7.89ZM62.52 51.75c.15.3.16.36-.04.54l-1.4 1.19c-.18.16-.3.2-.4.12-.05-.07-.11-.22-.14-.28l-4.88-11.28c-.1-.22-.12-.27.13-.47l1.44-1.23c.21-.18.29-.14.48-.02l10.35 6.63c.07.05.2.12.25.18.06.08-.04.23-.18.35l-1.55 1.32c-.14.12-.2.1-.49-.09l-2.53-1.72-2.38 2.03 1.35 2.74Zm-2.97-7.62c-.59-.44-1.4-1.16-1.97-1.68l-.02.02c.45.63 1 1.54 1.34 2.21l1.42 2.91 1.84-1.56-2.59-1.9ZM75.41 41.82c.18.27.15.35-.1.53l-1.41.95c-.25.18-.35.17-.53-.1l-5.58-8.21-1.97 1.35c-.22.14-.29.12-.44-.09l-.88-1.29c-.14-.21-.13-.28.08-.43l6.22-4.23c.3-.21.4-.22.48-.09.05.08.06.12.1.25l.49 1.4c.11.29-.06.4-.18.48l-1.87 1.27 5.58 8.21ZM86.74 35.05c.16.29.12.37-.15.52l-3.92 2.16c-.27.15-.36.13-.52-.15l-.48-.87c-.15-.28-.12-.36.15-.51l.88-.49-4.34-7.88-.88.48c-.27.15-.37.14-.53-.15l-.47-.86c-.16-.29-.12-.37.15-.52l3.92-2.16c.27-.14.35-.13.52.16l.48.86c.14.28.11.37-.17.52l-.87.48 4.34 7.88.88-.48c.27-.15.36-.14.52.15l.48.86ZM96.46 31.29c-2.62 1.08-5.02-.23-6.71-4.31-1.71-4.09-.92-6.73 1.68-7.81 2.59-1.07 5.02.25 6.71 4.32 1.7 4.08.93 6.71-1.68 7.8Zm-.71-6.8c-1.09-2.64-2.32-4.07-3.59-3.54-1.26.52-1.1 2.41 0 5.04 1.08 2.63 2.31 4.05 3.58 3.53 1.26-.53 1.12-2.4.02-5.03ZM114.83 24.57c.08.31.04.38-.27.46l-1.16.32c-.25.06-.31.04-.48-.14l-4.85-5.13c-.8-.85-1.26-1.37-1.65-2.12h-.04c.07.24.36 1.12.59 1.93l1.72 6.33c.08.32.03.39-.27.47l-1.29.35c-.29.08-.38.05-.46-.27l-3.06-11.32c-.09-.32-.03-.39.27-.47l1.45-.39c.26-.07.31-.04.46.12l4.39 4.67c.74.8 1.32 1.6 1.73 2.27h.03c-.15-.57-.53-1.79-.67-2.28l-1.52-5.58c-.09-.32-.03-.39.27-.47l1.29-.35c.3-.09.38-.05.46.26l3.07 11.33ZM123.4 22.95c-.03.34-.06.4-.33.43l-1.82.25c-.24.03-.35.01-.39-.12 0-.09.03-.24.04-.31l1.97-12.13c.04-.25.06-.29.37-.33l1.88-.26c.27-.04.32.03.41.24l5.14 11.17c.04.07.1.21.12.28 0 .11-.16.17-.35.2l-2.02.28c-.18.02-.22-.04-.35-.34l-1.2-2.83-3.11.43-.34 3.03Zm1.61-8.03c-.26-.68-.55-1.73-.74-2.48h-.04c.03.78 0 1.84-.07 2.59l-.37 3.22 2.38-.33-1.16-3.01ZM143.76 21.53c-.06.3-.12.33-.4.34l-6.01.09c-.32 0-.39-.04-.4-.38l-.2-11.73c0-.33.07-.38.37-.39l1.7-.02c.31 0 .38.05.38.38l.17 9.93 4.4-.07c.26 0 .33.09.33.23 0 .06-.01.16-.03.24l-.33 1.39ZM167.03 23.32c.04.12.06.2.04.28-.05.31-1.42.94-3.19.62-3.14-.55-4.29-2.87-3.53-7.18.73-4.13 2.71-6.28 5.81-5.73 1.35.23 2.78 1.51 2.72 1.85-.01.07-.03.14-.14.25l-.85.89c-.09.09-.17.15-.25.14-.3-.05-.74-1-1.7-1.17-1.55-.27-2.42.67-2.96 3.76-.54 3.05-.49 4.95 1.36 5.27 1 .18 1.76-.36 2.12-.31.07.01.12.08.17.22l.38 1.11ZM176.57 27.33c-2.7-.82-3.73-3.36-2.45-7.59 1.28-4.24 3.56-5.78 6.24-4.96 2.7.81 3.73 3.37 2.45 7.59-1.28 4.23-3.53 5.77-6.24 4.96Zm3.77-5.71c.83-2.74.79-4.63-.52-5.02-1.31-.4-2.39 1.16-3.22 3.89-.82 2.72-.78 4.6.53 5 1.31.39 2.39-1.15 3.21-3.88ZM196.78 30.32c-1.11 2.48-2.72 3.76-5.88 2.35-3.14-1.41-3.27-3.46-2.15-5.95l3.22-7.19c.13-.3.22-.32.51-.2l1.55.69c.28.12.33.21.2.51l-3.22 7.19c-.53 1.2-.97 2.38.72 3.14 1.68.76 2.28-.35 2.81-1.55l3.22-7.2c.13-.3.23-.32.5-.19l1.55.69c.28.13.33.2.19.5l-3.22 7.19ZM208.64 41.6c-.18.28-.25.3-.53.12l-1.03-.63c-.22-.13-.25-.19-.22-.43l.43-7.05c.07-1.16.14-1.86.42-2.66h-.04c-.12.18-.56 1-1.01 1.71l-3.45 5.59c-.17.28-.26.28-.53.13l-1.13-.7c-.27-.17-.3-.25-.12-.53l6.17-9.99c.17-.28.26-.29.53-.12l1.26.79c.24.14.26.2.24.42l-.4 6.4c-.08 1.09-.27 2.06-.48 2.81h.03c.3-.48.93-1.59 1.2-2.03l3.04-4.92c.18-.28.27-.29.53-.13l1.13.7c.26.17.3.25.12.53l-6.16 9.98ZM220.52 49.66c-.03.12-.05.2-.1.27-.2.25-1.71.14-3.1-.98-2.49-1.99-2.39-4.57.35-7.99 2.62-3.27 5.38-4.21 7.86-2.24 1.06.85 1.71 2.65 1.49 2.92-.05.06-.09.12-.25.16l-1.16.38c-.12.04-.23.05-.28 0-.25-.19-.18-1.24-.94-1.85-1.21-.98-2.44-.57-4.4 1.88-1.94 2.42-2.8 4.12-1.34 5.29.8.64 1.73.52 2.02.75.07.05.07.12.04.27l-.19 1.15ZM227.91 57.69c-.24.24-.33.22-.54 0l-3.19-3.13c-.21-.22-.22-.31 0-.55l.69-.7c.23-.23.33-.22.54 0l.72.7 6.32-6.4-.72-.71c-.23-.22-.24-.31 0-.55l.69-.71c.23-.22.32-.22.54 0l3.19 3.14c.22.21.23.3 0 .54l-.7.7c-.23.24-.31.22-.53 0l-.72-.7-6.31 6.4.72.71c.22.22.23.3 0 .54l-.69.7ZM236.69 67.84c-.27.13-.33.12-.51-.1l-3.83-4.64c-.2-.23-.2-.33.05-.53l9.03-7.48c.27-.21.35-.19.54.05l1.09 1.31c.2.25.2.33-.06.54l-7.65 6.32 2.81 3.39c.16.2.14.31.02.4-.04.04-.14.09-.2.12l-1.29.61ZM25.86 84.53c-.22-.11-.22-.17-.12-.37l.5-1c.07-.14.18-.18.33-.11l11.82 5.93c.15.07.18.18.11.32l-2.79 5.56c-.09.2-.17.21-.25.17l-.18-.16-.63-.62s-.06-.06-.08-.16c0-.07.01-.11.06-.2l1.99-3.97-3.97-1.99-1.76 3.5c-.09.2-.15.22-.35.12l-.78-.4c-.2-.09-.22-.14-.12-.35l1.76-3.5-5.52-2.78ZM18.8 99.51c1.08-3.04 4.24-3.29 8.25-1.86 4.03 1.44 6.26 3.64 5.18 6.66-1.07 2.99-4.21 3.3-8.22 1.86-4.02-1.43-6.28-3.64-5.2-6.66Zm5.81 4.97c3.27 1.16 5.6 1.49 6.36-.61.74-2.1-1.25-3.34-4.53-4.52-3.29-1.18-5.62-1.51-6.37.61-.77 2.12 1.25 3.34 4.55 4.52ZM13.75 120.37c-.09.02-.17.04-.23.02-.06 0-.1-.1-.09-.24l.03-1.28c.01-.15.08-.24.22-.26l6.92-1.86.31-1.41-5.87-1.29c-.15-.02-.22-.12-.18-.27l.25-1.14c.04-.15.12-.21.28-.17l12.92 2.82c.15.03.22.13.19.28l-.67 3.03c-.33 1.51-.96 3.95-4.42 3.19-2.15-.47-2.92-2.22-3.03-3.36l-6.63 1.95Zm8.15-3.49c-.32 1.45-.27 2.83 1.82 3.29 2.18.47 2.54-.93 2.78-2.04l.33-1.5-4.65-1.01-.27 1.26ZM11.07 144.44c-.01-3.1 2.31-4.99 7.15-5.02 4.86-.02 7.21 1.87 7.23 4.94.01 3.08-2.33 4.99-7.18 5.01-4.84.04-7.18-1.84-7.21-4.94Zm7.19 2.1c3.14-.01 5.1-.66 5.09-2.16-.01-1.5-1.99-2.13-5.12-2.12-3.12.02-5.07.66-5.07 2.17 0 1.5 1.97 2.12 5.09 2.11ZM14.42 165.6c-.11.07-.19.12-.29.14-.34.04-1.45-1.17-1.71-3.11-.47-3.47 1.57-5.44 6.32-6.09 4.56-.62 7.47.72 7.94 4.15.2 1.49-.65 3.4-1.03 3.45-.07.02-.16.02-.31-.05l-1.21-.59c-.13-.06-.22-.12-.23-.2-.04-.35.8-1.13.66-2.17-.23-1.72-1.51-2.31-4.91-1.86-3.37.47-5.33 1.16-5.06 3.2.15 1.11.98 1.72 1.03 2.12.01.08-.04.15-.17.24l-1.03.77ZM18.02 181.05c-.09.09-.16.15-.25.18-.33.09-1.58-.99-2.09-2.88-.89-3.39.89-5.6 5.54-6.81 4.45-1.16 7.49-.19 8.38 3.16.38 1.44-.24 3.45-.6 3.55-.08.02-.16.04-.32-.02l-1.28-.43c-.13-.04-.23-.1-.25-.17-.09-.34.65-1.21.38-2.24-.44-1.65-1.77-2.1-5.1-1.22-3.3.86-5.16 1.79-4.63 3.78.28 1.08 1.18 1.6 1.28 1.97.02.09-.02.15-.14.27l-.93.88ZM27.39 196.35c-2.76 1.13-5.01.94-6.45-2.56-1.45-3.5 0-5.22 2.77-6.35l7.99-3.29c.34-.14.43-.08.55.23l.72 1.72c.13.31.1.4-.24.54l-7.98 3.3c-1.34.54-2.57 1.16-1.81 3.03.77 1.87 2.09 1.43 3.42.89l7.99-3.3c.33-.14.42-.08.55.22l.71 1.73c.12.31.11.4-.22.55l-7.99 3.29ZM28.93 208.38c-.3.19-.4.15-.57-.14l-.93-1.61c-.17-.3-.17-.39.15-.58l11.12-6.46c.31-.18.4-.14.57.16l1.63 2.79c.81 1.4 2.33 4.03-.92 5.93-2.85 1.65-5.09.12-6.15-1.71l-.53-.91-4.38 2.53Zm6.51-3.06c.59 1.03 1.32 1.89 3.07.87 1.5-.87 1.02-1.82.5-2.72l-.41-.71-3.48 2.01.32.54ZM36.71 220.45c-.34.15-.41.16-.59-.09l-1.23-1.6c-.16-.21-.2-.33-.1-.42.08-.07.25-.12.32-.16l12.64-4.65c.25-.09.3-.09.51.17l1.26 1.66c.17.24.14.32 0 .52l-7.91 10.93c-.05.07-.14.21-.21.27-.09.07-.25-.07-.37-.22l-1.36-1.79c-.12-.15-.09-.22.13-.52l2.05-2.67-2.08-2.74-3.07 1.32Zm8.53-2.8c.51-.61 1.35-1.45 1.97-2.04l-.03-.04c-.72.45-1.75 1-2.51 1.33l-3.27 1.38 1.6 2.1 2.25-2.74ZM49.06 235.02c-.25.25-.35.24-.59 0l-1.29-1.34c-.25-.25-.25-.35 0-.59l7.83-7.57-1.81-1.88c-.2-.2-.2-.29 0-.48l1.23-1.19c.21-.19.29-.19.48.02l5.72 5.92c.28.29.33.4.2.51-.08.07-.12.09-.25.15l-1.43.8c-.28.17-.43 0-.55-.1l-1.73-1.79-7.83 7.56ZM60.55 245.49c-.24.27-.33.27-.6.05l-3.75-3.16c-.25-.22-.27-.31-.04-.58l.69-.83c.24-.27.34-.27.59-.05l.85.71 6.35-7.54-.85-.71c-.25-.22-.28-.32-.04-.6l.69-.82c.22-.27.33-.27.59-.04l3.75 3.14c.26.22.28.33.06.61l-.71.82c-.22.27-.33.27-.59.06l-.84-.72-6.36 7.54.85.71c.25.22.28.32.05.59l-.69.82ZM70.44 253.59c-2.59-1.69-2.88-4.68-.23-8.74 2.67-4.06 5.54-4.98 8.12-3.29 2.58 1.68 2.87 4.7.22 8.75-2.66 4.05-5.51 4.98-8.11 3.27Zm5.72-4.83c1.72-2.63 2.26-4.62 1.01-5.44-1.25-.82-2.88.48-4.59 3.09s-2.25 4.6-.99 5.43c1.25.81 2.85-.47 4.57-3.08ZM91.09 263.86c-.15.33-.24.36-.56.21l-1.19-.56c-.25-.12-.29-.18-.3-.45l-.42-7.73c-.07-1.26-.08-2.05.12-2.96h-.04c-.11.22-.5 1.18-.88 2l-3.06 6.53c-.15.33-.25.35-.56.2l-1.32-.62c-.31-.15-.35-.23-.2-.56l5.46-11.65c.15-.32.25-.35.56-.19l1.48.69c.27.13.29.17.31.43l.35 7.02c.06 1.2-.03 2.28-.17 3.12l.04.02c.26-.58.81-1.88 1.05-2.38l2.69-5.74c.15-.33.25-.35.56-.2l1.32.63c.31.14.35.22.2.55l-5.46 11.64ZM101.49 267.72c-.19.33-.24.37-.53.28l-1.93-.59c-.25-.08-.35-.14-.33-.29.03-.09.13-.22.17-.3l7.54-11.17c.15-.23.18-.26.51-.16l1.98.61c.29.08.3.17.31.43l-.02 13.48c0 .08 0 .25-.03.33-.03.11-.24.09-.43.04l-2.15-.66c-.18-.06-.2-.13-.19-.51l.11-3.35-3.29-1-1.73 2.86Zm5.29-7.26c.05-.79.25-1.97.4-2.8l-.04-.02c-.32.79-.82 1.84-1.25 2.55l-1.86 3.04 2.53.77.22-3.54ZM124.63 273.14c-.13.3-.2.33-.49.29l-6.51-1.11c-.33-.05-.4-.12-.35-.48l2.14-12.68c.06-.35.14-.4.48-.35l1.84.31c.34.06.4.12.35.48l-1.81 10.73 4.76.8c.27.04.33.15.32.31-.02.07-.06.18-.09.25l-.63 1.43ZM150.62 263.18c-.05.12-.13.2-.21.21-.12 0-1.39-.82-2.84-.77-.91.04-1.86.44-1.81 1.64.07 1.52 2.41 1.7 4.23 2.93 1.05.71 1.8 1.74 1.86 3.26.1 2.54-1.63 4.29-4.15 4.4-2.03.08-4.21-.7-4.23-1.03 0-.05.05-.2.09-.33l.41-1.33c.03-.13.13-.21.2-.22.12 0 1.64.81 3.36.74 1.12-.04 1.77-.67 1.71-1.91-.07-1.78-2.11-1.87-4.21-3.03-1.08-.59-1.8-1.36-1.87-3.02-.12-2.88 1.91-4.17 4.23-4.27 1.9-.07 3.89.72 3.91 1.06 0 .06-.01.14-.09.3l-.61 1.35ZM161.49 272.83c-.03.36-.05.43-.35.48l-1.99.34c-.25.04-.38.02-.41-.12-.02-.1 0-.27.02-.35l1.74-13.36c.04-.27.05-.3.38-.37l2.04-.34c.3-.05.35.02.48.25l6.01 12.06c.04.08.12.23.13.3.02.12-.17.2-.36.23l-2.21.37c-.2.04-.25-.02-.41-.35l-1.4-3.06-3.4.58-.26 3.34Zm1.49-8.85c-.32-.74-.67-1.89-.9-2.69h-.04c.06.85.08 2.02.02 2.85l-.3 3.54 2.6-.45-1.37-3.24ZM180.02 268.66c.11.35.07.42-.26.52l-1.81.55c-.32.1-.41.06-.51-.28l-3.74-12.31c-.1-.34-.05-.43.28-.53l6.27-1.9c.39-.12.5-.11.55.06.03.1.02.14.02.29l.03 1.39c0 .3-.2.39-.35.43l-3.71 1.13.96 3.16 3.25-.99c.35-.1.43-.07.52.27l.38 1.27c.12.35.05.43-.27.53l-3.26.99 1.65 5.41ZM198.43 261.61c.15.33.12.41-.2.54l-6.03 2.65c-.31.14-.4.12-.56-.22l-5.17-11.78c-.15-.33-.09-.42.22-.56l6.01-2.64c.36-.15.47-.16.54 0 .04.09.04.14.07.27l.19 1.39c.04.31-.14.4-.3.48l-3.55 1.56 1.32 3.02 3.11-1.37c.34-.15.42-.12.56.22l.53 1.21c.14.33.09.42-.22.56l-3.11 1.37 1.58 3.59 3.92-1.71c.33-.15.4-.12.55.21l.53 1.21ZM209.27 255.73c.18.3.14.4-.15.57l-1.6.94c-.29.17-.4.16-.57-.15l-5.51-9.38-2.26 1.32c-.24.15-.33.13-.46-.11l-.87-1.5c-.14-.24-.13-.32.12-.45l7.11-4.16c.35-.21.45-.22.54-.07.05.09.06.13.09.27l.44 1.59c.09.3-.09.42-.24.5l-2.13 1.26 5.5 9.39ZM222.22 246.86c.23.29.2.39-.08.59l-1.48 1.13c-.27.2-.37.2-.58-.08l-3.15-4.14-7.4-3.52c-.14-.06-.28-.15-.37-.25-.07-.1.02-.25.2-.43l1.4-1.47c.08-.09.14-.14.16-.14.06-.06.18-.09.4.02l3.36 1.74c.46.25 1.1.59 1.95 1.25l.04-.02c-.43-1.16-.6-1.81-.72-2.4l-.71-3.37c-.1-.43-.04-.47.04-.52.06-.05.17-.12.26-.15l1.58-.75c.16-.07.35-.13.44-.01.05.07.05.17.08.34l1.45 8.05 3.14 4.13ZM244.82 224.51c.13.06.22.1.32.14.07.06.04.14-.09.29l-.8.94c-.16.19-.27.19-.4.13l-3.66-1.65-2.66 3.11 2.28 3.29c.09.12.1.23-.06.41l-.81.94c-.13.15-.2.2-.27.14-.06-.08-.12-.16-.2-.3l-7.31-11.49c-.11-.18-.11-.2.02-.38l.77-.9c.1-.12.15-.17.35-.09l12.53 5.39Zm-10.1-2.72c-.58-.28-1.25-.59-1.75-.88l-.02.03c.32.38.85 1.09 1.19 1.55l2.57 3.79 2.16-2.54-4.15-1.95ZM254.4 210.98c.12.07.15.2.07.33l-.61.94c-.08.14-.18.17-.34.16l-10.8-1.47c-.57-.09-1.23-.27-1.76-.49v.06c.74.27 1.24.55 1.62.79l8.2 5.28c.13.09.16.2.07.33l-.56.88c-.1.14-.2.17-.33.07l-11.12-7.15c-.12-.08-.15-.19-.07-.33l.74-1.15c.08-.13.19-.16.32-.15l10.23 1.32c.55.07.95.26 1.55.43v-.05c-.4-.18-.84-.32-1.13-.51l-8.02-5.17c-.14-.09-.15-.2-.07-.33l.56-.87c.08-.14.2-.16.33-.07l11.12 7.16ZM248.03 194.29c1.19-2.52 2.88-4.6 8.38-2.02 4.3 2.02 5.67 4.33 3.94 8.02l-.98 2.09c-.07.15-.18.19-.32.12l-11.97-5.61c-.15-.07-.19-.17-.12-.32l1.07-2.28Zm11.19 5.1c1.21-2.59-.56-4.08-3.66-5.54-3.96-1.85-5.28-1.08-6.27 1.03l-.47 1 9.87 4.62.53-1.12ZM270.79 166.64c.35.08.4.17.33.51l-.4 1.81c-.07.33-.14.4-.49.32l-5.46-1.16-.8 3.71 5.46 1.17c.35.07.4.17.33.51l-.4 1.81c-.06.34-.14.4-.48.33l-12.58-2.69c-.35-.07-.39-.17-.33-.49l.4-1.83c.07-.33.14-.4.49-.32l5.01 1.07.79-3.71-5.01-1.07c-.35-.08-.39-.17-.33-.5l.39-1.82c.08-.34.15-.4.5-.32l12.57 2.69ZM272.63 150.06c.36.03.42.1.38.43l-.52 6.56c-.03.34-.09.41-.45.39l-12.82-1.03c-.36-.04-.41-.12-.38-.46l.52-6.53c.03-.4.09-.5.26-.48.1 0 .13.03.27.08l1.3.49c.3.1.3.33.28.48l-.3 3.87 3.29.26.26-3.39c.04-.36.09-.41.45-.39l1.32.11c.36.03.42.11.39.45l-.27 3.39 3.91.32.34-4.27c.04-.36.09-.41.46-.38l1.31.1ZM272.69 140.08c.37.06.43.1.44.4l.09 2.02c.01.27-.01.38-.15.41-.11 0-.27-.05-.35-.07l-13.06-3.32c-.26-.07-.3-.09-.32-.43l-.1-2.08c-.02-.3.06-.34.3-.43l12.69-4.54c.09-.01.24-.09.32-.09.12 0 .16.2.17.4l.11 2.23c0 .2-.05.25-.4.36l-3.2 1.03.17 3.43 3.27.67Zm-8.61-2.54c-.77.22-1.94.43-2.78.58v.04c.84.04 2 .17 2.81.33l3.48.71-.13-2.64-3.39.98ZM269.98 116.44c.33.02.38.07.43.38l1.16 6.49c.07.34.02.43-.34.48l-12.65 2.28c-.35.06-.43 0-.48-.34l-.33-1.84c-.05-.33-.01-.41.35-.48l10.7-1.92-.85-4.74c-.06-.28.04-.38.19-.41h.27l1.56.1ZM267.02 105.54c.35-.1.43-.04.53.28l.53 1.79c.1.32.06.42-.28.52l-10.44 3.09.74 2.51c.08.27.04.34-.23.43l-1.65.48c-.27.08-.35.04-.43-.22l-2.33-7.91c-.12-.38-.1-.49.07-.54.09-.03.14-.02.28-.03l1.64-.04c.33-.01.39.2.43.35l.7 2.38 10.43-3.08ZM259.75 86.79c.33-.14.42-.1.56.21l.75 1.71c.14.3.12.4-.22.55l-5.1 2.25 1.53 3.48 5.1-2.25c.33-.15.42-.1.56.21l.74 1.71c.14.31.12.41-.21.56l-11.77 5.2c-.33.15-.42.09-.54-.22l-.77-1.71c-.14-.3-.11-.4.22-.56l4.68-2.07-1.54-3.48-4.68 2.07c-.33.14-.41.09-.55-.22l-.75-1.7c-.14-.3-.12-.4.22-.55l11.76-5.2Z" class="m"/><path d="m36.43 64.36 2.96 5.44 6-1.51-4.25 4.5 3.29 5.24-5.58-2.65-3.98 4.75.8-6.14-5.74-2.31L36 70.54l.43-6.18zM250.63 67.82l-2.97 5.43-6-1.5 4.25 4.49-3.29 5.24 5.6-2.64 3.96 4.75-.79-6.15 5.74-2.3-6.09-1.14-.41-6.18z" class="p"/><path d="M251.93 142.16c0 60.62-49.15 109.77-109.77 109.77S32.39 202.78 32.39 142.16 81.52 32.38 142.15 32.38s109.77 49.15 109.77 109.78Z" class="l"/><g class="r"><path d="M165.83 248.27c-11.01 7.8-19.24 3.57-27.58 3.57.51-2.31 4.31-8.01 5.67-9.73 4.99-6.29 12.84-11.33 20.29-15.03 4.84-2.41 9.85-4.28 14.84-6.35 30.2-8.67 54.93-22.82 71.35-45.26.2 1.33-1.08 2.41-1.81 3.44-5.72 8.11-12.85 15.07-20.82 21.37-5.55 4.36-11.25 8.74-17.39 12.31-6.4 3.71-13.24 6.62-19.56 10.14-7.62 4.24-14.66 9.86-20.11 15.93-1.68 3.15-4.03 5.64-4.89 9.6ZM252.2 177.82c.64.35.28 1.52.18 2.18-.61-.13-.4-1.77-.18-2.18ZM250.39 178.37c.64.06.47.48.36.9-.63.12-.65-.64-.36-.9Z" class="o"/><path d="M205.67 248.27h-18.65c6.58-16.91 21.02-25.94 34.95-35.5 6.69-5.2 13.04-10.74 18.47-17.2 1.59-2.7 3.61-4.97 5.25-7.6 1.56-2.73 2.8-5.77 4.52-8.33-4.71 13.61-12.06 23.67-20.1 33.32-2.7 3.24-6.05 5.77-8.87 9.06-6.29 7.27-12.09 15.42-15.21 25.71-.22.08-.37.24-.36.55ZM238.25 248.27h-15.74c.38-1.24.19-3.06.9-3.98v-1.45c.51-1.17 1.04-2.34 1.08-3.98 3.12-8.82 7.73-15.92 12.68-23 4.97-7.12 8.8-14.84 11.95-23.91.13-1.5.54-2.73 1.09-3.81.15-1.84.48-3.5 1.09-4.89.07-.83-.24-2.04.35-2.36.56 3.63-.39 7.51-.9 10.87-2.32 15.28-8.25 27.47-11.4 42.01.66 1.25-.38 2.59-.54 3.98-.4 3.21-.47 6.86-.56 10.51ZM82.53 248.27c2.17-5.98 7.08-9.22 11.22-13.22 11.1-7.39 23.6-13.35 38.39-17.03.43-.23.87-.46 1.27-.72 2.38-.34 4.48-.95 6.53-1.63h1.63c4.39-1.23 8.93-2.28 13.94-2.9.56-.05.81-.39 1.27-.54h1.8c1.03-.8 3.37-.26 4.35-1.08 3.5 0 5.93-1.08 9.24-1.27 1.78-.57 3.74-.95 5.97-1.08.56-.05.82-.39 1.26-.54 2.79.08 4.4-1.03 7.07-1.09 1.69-.96 4.43-.88 6.16-1.8 5.72-1.47 12.06-2.31 16.48-5.07 16.14-5.61 29.28-14.31 40.2-25.18-2.93 4.81-8.73 8.29-12.86 12.49-11.41 8.63-24.25 15.84-38.94 21.19-2.07.35-3.88.95-5.43 1.81-3.12.51-5.94 1.31-8.69 2.17h-1.27c-1.03.66-2.96.43-3.79 1.27h-1.27c-1.99.66-4.02 1.29-6.34 1.63-23.12 7.36-45.95 15.01-58.85 32.6H82.54Z" class="o"/><path d="M253.11 170.58v77.69h-14.86c.09-3.65.16-7.3.56-10.51.17-1.4 1.21-2.73.54-3.98 3.15-14.54 9.08-26.73 11.4-42.01.51-3.36 1.47-7.24.9-10.87-.59.31-.28 1.53-.35 2.36-.61 1.38-.94 3.05-1.09 4.89-.56 1.08-.96 2.3-1.09 3.81-3.14 9.06-6.97 16.78-11.95 23.91-4.94 7.08-9.55 14.17-12.68 23-.04 1.64-.57 2.81-1.08 3.98v1.45c-.71.92-.53 2.74-.9 3.98h-16.84c0-.31.14-.47.36-.55 3.12-10.28 8.93-18.44 15.21-25.71 2.82-3.28 6.18-5.82 8.87-9.06 8.04-9.66 15.39-19.71 20.1-33.32-1.72 2.56-2.96 5.6-4.52 8.33-1.64 2.64-3.66 4.91-5.25 7.6-5.43 6.46-11.78 11.99-18.47 17.2-13.93 9.56-28.37 18.59-34.95 35.5-7.06 0-18.04 7.15-25.1 7.15.87-3.96 7.12-13.6 8.81-16.75 5.45-6.07 12.48-11.69 20.11-15.93 6.32-3.52 13.16-6.43 19.56-10.14 6.14-3.57 11.84-7.95 17.39-12.31 7.97-6.29 15.1-13.26 20.82-21.37.72-1.03 2-2.11 1.81-3.44-16.42 22.44-41.15 36.59-71.35 45.26-4.99 2.07-10 3.94-14.84 6.35-7.44 3.7-15.29 8.74-20.29 15.03-1.36 1.71-6.02 10.96-6.53 13.27-9.65 0-15.86-7.11-25.52-7.11 12.9-17.59 35.73-25.24 58.85-32.6 2.31-.34 4.34-.97 6.34-1.63h1.27c.84-.85 2.76-.62 3.79-1.27h1.27c2.75-.86 5.57-1.66 8.69-2.17 1.55-.86 3.36-1.47 5.43-1.81 14.69-5.35 27.53-12.56 38.94-21.19 4.13-4.2 9.93-7.69 12.86-12.49-10.92 10.87-24.06 19.56-40.2 25.18-4.42 2.76-10.76 3.61-16.48 5.07-1.73.92-4.47.84-6.16 1.8-2.67.06-4.28 1.17-7.07 1.09-.45.15-.71.49-1.26.54-2.23.13-4.19.51-5.97 1.08-3.32.19-5.75 1.27-9.24 1.27-.98.82-3.32.29-4.35 1.08h-1.8c-.46.15-.71.49-1.27.54-5.01.62-9.55 1.67-13.94 2.9h-1.63c-2.05.69-4.14 1.29-6.53 1.63-.4.26-.84.49-1.27.72-14.79 3.68-27.29 9.64-38.39 17.03-4.15 4-9.06 7.23-11.22 13.22H50.68c4.23-6.93 10.51-11.83 17.2-16.3 14.88-10.26 33.31-16.74 53.97-21.37 1.7-.38 3.53-.79 5.25-1.09 1.81-.3 3.63-.43 5.43-.72.38-.06.71-.47 1.09-.54 3.09-.57 6.37-.53 9.79-1.09.69-.11 1.45-.61 2.17-.72 5.75-.86 12.02-1.55 17.74-2.18 1.34-.14 2.44-.4 3.45-.54 2.44-.33 4.99-.19 7.43-.53 1.9-.27 3.8-.98 5.79-1.27 6.1-.9 12.18-1.49 17.74-3.07 22.92-4.99 40.72-15.08 55.41-28.26Zm-.73 9.42c.1-.65.46-1.83-.18-2.18-.22.41-.43 2.05.18 2.18Zm-1.63-.72c.11-.43.27-.84-.36-.9-.29.27-.27 1.03.36.9Z" class="q"/></g><path d="M64.58 191.38c-.25-1.85-.51-3.67-.78-5.45-.27-1.77-.42-2.71-.44-2.8-.06-.17-.15-.25-.28-.25l-3.62-28.47c.16-.14.21-.29.18-.46-.31-2.06-.48-3.17-.51-3.34-.24-1.42.08-3.09.95-4.99.98-2.15 1.4-3.94 1.26-5.4-.14-1.47-.21-2.28-.21-2.42.04-.58-.08-1.08-.34-1.53.48-.84.93-1.52 1.3-2.04.39-.53.96-.92 1.74-1.17.9-.3.89-.83-.06-1.6 1.42-1.94 2.28-3.05 2.59-3.34 1.45-1.36 2.53-2.74 3.24-4.14.85-1.7 1.41-2.74 1.63-3.12.94-1.54 1.5-2.59 1.67-3.14.58-1.82 1.37-3.79 2.39-5.89.1.03.26-.24.48-.81.22-.56.44-.9.66-1 .23-.11.47-.44.73-.99.51 2.13.77 4.33.78 6.61 0 .35.03 1.47.1 3.33 0 .24-.07.7-.25 1.37-.17.64-.07 2.45.3 5.41 0 .06-.08 2.26-.25 6.58 0 .31-.15 2.46-.4 6.43-.01.15.01.44.08.84.04.2.05.48.05.85.01.37.87 1.2 2.59 2.49-.22 1.89-.32 3.72-.31 5.47 0 .23.14.57.4 1.03.1.17.07.44-.08.81-.13.33-.18.69-.13 1.06.04.38.09.64.13.79.04.16.13.47.26.96.12.49.41 1.13.85 1.93-.21.4-.25.74-.12 1.01.03.07.48 2.08 1.33 6.06.02.1.26 1.13.73 3.07 0 2.63.02 4.59.07 5.89.04 1.16.33 2.03.87 2.61.06.06.09.28.1.68 0 .05-.04.49-.12 1.32-.08.82-.03 1.51.14 2.06-.38.82-.42 1.67-.13 2.56.04.11-.06.29-.3.52-.22.23-.41.74-.58 1.56-.01.06-.06.24-.14.54-.06.24-.04.7.08 1.37.02.11-.01.36-.09.73-.07.26-.02.62.12 1.08.04.13-.1.46-.46.96-.09.12.02 1.42.35 3.9.02.14.11 2.14.32 5.98 0 .13.14 1.39.43 3.79.04.33.04.86.01 1.61-.03.64.11 1.6.41 2.87.3 1.28.92 2.67 1.85 4.16-1 1.63-1.77 2.8-2.29 3.5-.48.65-.59 1.41-.3 2.27.3.87.55 1.5.77 1.9.22.39.42.63.61.69.02.59.26.99.71 1.2-.32.33-.46.61-.42.85-.27.04-.46.21-.55.52-.01.06-.1.27-.27.62-.15.35-.23.81-.22 1.34-.17.08-.13.43.14 1.07.25.64.97 1.02 2.15 1.15 2.08.47 3.46.65 4.1.56.67-.09 1.03-.15 1.1-.17 1.26-.38 1.93-.78 2.01-1.23.08-.47-.05-.91-.39-1.31.14-.12.14-.39 0-.8.26-.33.45-.75.54-1.25l.5.69s.04.03.07.04c.02 0 .05 0 .07-.02.02-.02.04-.04.04-.06 0-.02 0-.05-.01-.07l-.63-.87c.06-.33.04-.64-.06-.92v.02c.51.13.81-.16.93-.87.4-.28.82-.85 1.26-1.7.44-.85.68-1.41.74-1.64.26-1.04-.02-2.19-.87-3.45-.07-.56-.11-.94-.15-1.16-.61-3.44-.86-6.05-.75-7.83.12-1.9.25-4.37.38-7.41.14-3.23.22-4.94.23-5.11.09-1.04-.03-1.95-.37-2.75.49-1.94.59-3.29.33-4.07-.27-.78-.41-1.22-.44-1.33-.21-1.04-.17-1.81.13-2.35.33-.59.45-1.33.37-2.22-.09-.93-.07-1.55.07-1.85.13-.31.23-.66.26-1.04.04-.49.06-.73.07-.74.03-.07.04-.14.07-.21.33-1.1.47-2.26.4-3.49-.08-1.32-.07-2.25.02-2.81.08-.57.14-1.36.17-2.36.04-1.05.2-1.8.49-2.21.29-.43.41-1.13.37-2.1-.05-1.04-.03-1.59.04-1.66.08-.07.12-.1.13-.08.36 1.69.53 3.06.52 4.12-.02 1 .23 2.36.75 4.09.04.1-.05 1.13-.25 3.06-.2 1.87.23 3.53 1.28 5.01.02.03.11.45.23 1.25.05.32.09 1.04.12 2.18.02 1.13.34 1.81.93 2.05-.18.53-.21 1.08-.08 1.67.01.09-.02.37-.13.82-.09.39 0 1.08.29 2.09.04.13.04 1.09 0 2.84 0 .14-.05 1.6-.15 4.37 0 .15-.07 1.81-.18 5-.09 2.63.03 5.27.38 7.9.07.49.16 1.79.25 3.84 0 .18.02.35.03.53-.06 1.28-.12 1.98-.18 2.07-.52.93-.79 1.77-.82 2.54 0 .13-.14.57-.38 1.3-.25.72.24 1.71 1.5 2.98.06.48.41.68 1.04.6-.04.52 0 .87.14 1.05-.1.25-.13.42-.07.51l-.37.92v.07c0 .03.03.04.05.06h.08c.03-.01.04-.03.05-.06l.35-.85c.15.02.27-.04.33-.19.45.29.82.64 1.11 1.07-.11.78-.04 1.38.19 1.79.23.42.64.72 1.21.9 2.38.74 4.18.95 5.41.61 1.24-.34 1.94-.73 2.1-1.17.16-.46.26-.76.31-.89.1-.28.1-.49 0-.64-.09-.76-.23-1.3-.45-1.64-.21-.33-.34-.53-.37-.6-.11-.29-.26-.45-.45-.46-.45-.16-.81-.58-1.09-1.24.28-.3.35-.67.19-1.14.52-.45.9-1.04 1.17-1.77.26-.73.44-1.15.52-1.28.23-.32.36-.6.43-.85.09-.35.14-.57.17-.65.08-.29.14-.68.15-1.13.01-.64.03-.97.03-1.03.06-1.4.09-2.15.09-2.28-.18-3.07-.26-4.64-.26-4.7-.22-2.62-.32-3.96-.33-4.07-.04-.87-.07-1.73-.1-2.58-.04-.97-.06-1.49-.06-1.58-.02-1.86-.05-3.09-.12-3.67-.07-.62-.12-.96-.12-1.04-.03-1.77.01-2.93.17-3.5.15-.58-.05-1.29-.61-2.12.17-.37.19-.73.08-1.06-.12-.34-.08-.64.13-.89.22-.28.27-.64.14-1.04.18-.92.01-1.73-.5-2.4.12-.23.2-.6.22-1.1.03-.5.08-.8.15-.89.43-.57.66-.91.65-1.06-.12-1.84-.19-2.81-.2-2.91-.25-2.71-.36-4.09-.34-4.16.21-.9.39-1.99.54-3.27.15-1.39.21-2.62.15-3.68-.07-1.12-.08-1.75-.07-1.88.15-1.23.21-2.41.2-3.57-.01-1.27.05-2.04.18-2.34.14-.3.17-.7.09-1.25.85.11 1.4-.13 1.65-.7.25-.56.55-1.28.87-2.15.38-1 .58-1.51.6-1.55.23-.42.63-.57 1.18-.43-.12.44-.03.75.28.9-.26 1.06-.12 1.84.45 2.36-.67.46-1.24 1.01-1.74 1.64-1.84.45-2.66 1.09-2.48 1.93-.5.26-.73.53-.68.8.03.27.27.36.74.22.47-.13.95-.13 1.47 0-.25.58-.25.9 0 .98-.05.34.17.45.69.33 1.17.08 2.61-1.43 4.3-4.54.7-1.07 1.09-1.64 1.15-1.74.55-.8.82-1.73.79-2.8 0-1.19-.16-2.2-.43-2.99-.31-.94-.45-1.43-.44-1.48.3-.75.44-1.58.44-2.44 0-.93.04-1.51.11-1.74.08-.24.11-.39.1-.45-.01-.7-.53-.96-1.53-.78-.1-2.76-.16-4.23-.16-4.4-.06-4.51-.21-8.05-.48-10.63-.27-2.67-.74-4.69-1.41-6.01-.67-1.35-1.24-3.48-1.71-6.38 2.22-.56 3.29-.94 3.21-1.16-1.73-4.81-2.63-7.29-2.69-7.46-1.89-5.63-2.9-8.67-3.04-9.12-.52-1.66-.95-2.81-1.3-3.44-.44-.8-1.53-1.54-3.28-2.22-1.79-.7-2.74-1.09-2.88-1.18-1.5-.94-3.12-1.77-4.84-2.48-.19-1.38-.89-2.5-2.1-3.36.71-1.42 1.03-2.96.96-4.63.36-.18.53-.51.53-1 0-.48 0-.75.04-.81.15-.25.2-.66.12-1.24 1.02-1.01 1.8-1.88 2.34-2.61.55-.74 1.09-1.53 1.64-2.38.6-.94.95-1.47 1-1.59.21-.4.19-.65-.04-.78-.3-.16-.57.02-.82.56-.24.52-.66.7-1.28.51-.62-.18-1.56-.36-2.83-.52-.03-.14-.07-.24-.1-.26-.61-.59-1.03-1.31-1.29-2.16-.27-.9-.75-1.76-1.44-2.55-.71-.85-1.34-1.65-1.83-2.4-.51-.76-.82-1.2-.93-1.31-.3-.3-.67-.41-1.14-.33-.12.02-1.05.15-2.81.4-1.66.23-2.88 1.06-3.65 2.5-.04.08-.21.57-.52 1.46-.26.77-.62 1.55-1.07 2.33-.47.78-.68 2.06-.64 3.84-.97-.13-1.76-.34-2.35-.64-.55-.28-1.13-.03-1.76.78-.59.77-.86 2.03-.81 3.77.05 1.58.42 2.7 1.11 3.37.07.06.32.32.78.74s1.96.63 4.5.6c.04.14.09.28.14.42.05.13.23 1.08.51 2.84-1.08.36-1.83 1.68-2.24 3.96-.85.21-1.64.52-2.36.9-.21.11-.71.27-1.5.48-.06.02-1.23.43-3.51 1.25-.09.03-1.23.38-3.45 1.05-.15.04-.33.13-.53.25-.2.1-.69.56-1.48 1.36-.09.09-.87 1.45-2.32 4.09-.07.12-.96 1.83-2.67 5.11-.1.18-.98 2.16-2.66 5.93-.08.18-.31.87-.68 2.07-.56 0-.69.3-.4.88-.18.46-.24.8-.18 1.01.05.22.87.76 2.42 1.62-1.08 2.72-2.26 4.85-3.55 6.42-1.19 1.46-2.02 3.1-2.48 4.92-.45 1.75-1.29 3.99-2.55 6.75-.24-.03-.46.08-.68.3-.08.08-.48.71-1.19 1.9-.25.43-.75 1.04-1.49 1.84-.1.1-.14.24-.14.4-1.93 1.22-3.21 2.18-3.85 2.87-.61.67-1.11 1.71-1.5 3.13-.39 1.44.04 2.81 1.24 4.11.39 1.69 1.21 3.29 2.44 4.82 1.08 1.33 1.64 2.47 1.65 3.44.02.88.07 1.78.14 2.69.07.9.24 1.42.5 1.57l3.82 28.52c-.08.07-.11.18-.11.34 0 .15.21 1.25.63 3.29.39 1.92.81 4 1.25 6.24M103.5 68.38c.21-.03.34.01.4.12.07.12 0 .15-.15.1-.16-.05-.29-.09-.4-.13-.12-.04-.07-.07.15-.1Zm10.56 72.03c1-.49 1.67-.89 2.02-1.18.34-.3.5-.47.48-.52-.81-2.14-1.48-4.47-2-6.98 1.12 2.51 2.03 5.08 2.72 7.7-1.93.55-2.61 1.07-2.07 1.55.07.73.22 1.4.48 2-.06.44-.06.78 0 1.01-.13.41-.23.78-.29 1.13-.05.35-.27.99-.68 1.95-.19-1.81-.29-2.79-.27-2.92.12-1.11-.02-2.36-.41-3.76Zm-55.35 3.03c-.36-.68-.78-1.09-1.26-1.26.06-.42-.05-.85-.35-1.3.52-.3.7-.77.56-1.42 1.03-.33 1.58-.47 1.63-.45.09.04.09.63 0 1.75-.08.95-.27 1.86-.57 2.68Zm-.74.82c.12.05.26.05.42 0-.11.25-.21.49-.33.71.07-.26.04-.5-.09-.71Zm-3.27-1.36c.26.25.6.44 1.05.59.41 1.13 1.07 1.83 2 2.07-.06.1-.11.21-.17.31-.35.59-.52 1.18-.49 1.77 0 .06-.05.05-.16-.02-.04-.04-.12-.16-.24-.39-.09-.18-.3-.42-.64-.71-.33-.3-.73-.83-1.21-1.6.65-.59.61-1.26-.14-2.03Z" class="m"/><path d="M61.06 189.74c.28 2 .51 3.63.7 4.9.25 1.64.4 2.66.48 3.07.14.73.3 1.1.45 1.14-2.82.39-4.58.75-5.29 1.08-.7.33-.99.97-.87 1.91.12.95.33 2.67.64 5.17.3 2.5.72 5.18 1.26 8.06.55 2.88.99 4.84 1.33 5.89.35 1.05.55 1.64.62 1.78.06.15.12.2.18.13s.1-.59.13-1.56c.02-.98.02-1.59 0-1.85-.03-.25-.33-1.91-.89-4.97-.57-3.05-1.14-7.34-1.73-12.88-.04-.28.21-.47.74-.56 1.25-.12 1.95-.18 2.08-.16.14 0 .26.31.36.91.09.6.35 2.14.77 4.65.42 2.52.82 5.21 1.19 8.12.37 2.91.73 4.89 1.08 5.94.34 1.04.55 1.64.61 1.78.07.15.12.19.18.13.06-.07.1-.59.13-1.56.03-.98.04-1.6 0-1.85-.02-.26-.25-1.96-.7-5.09-.44-3.13-1.07-7.39-1.9-12.81-.03-.25.08-.4.35-.46.02-.01.81-.11 2.31-.32.18-.02.28-.03.31-.03.13.02.21.09.23.23.2.95.36 1.93.49 2.92.13 1 .21 1.56.23 1.7.02.13.08.55.18 1.26.11.71.25 1.67.42 2.87.26 1.48.52 3.01.77 4.62.45 2.89.86 4.87 1.24 5.91.37 1.04.59 1.63.66 1.77.06.15.13.19.18.13.05-.07.08-.6.08-1.57s0-1.61-.03-1.9c-.01-.29-.09-.73-.2-1.31-.49-2.62-.84-4.6-1.03-5.93-.2-1.32-.38-2.49-.51-3.53-.13-1.03-.23-1.75-.3-2.15-.07-.4-.16-.9-.26-1.51-.09-.6-.26-1.78-.48-3.52-.01-.13.02-.23.11-.28.02-.02.27-.05.75-.13 1.15-.11 1.79-.13 1.92-.08.27.13.43.37.48.73.18 1.11.42 2.65.73 4.61.39 2.5.85 5.19 1.36 8.09.52 2.89.93 4.86 1.24 5.92.32 1.06.51 1.66.57 1.8.07.15.13.19.17.13.07-.07.11-.59.12-1.56.01-.97.03-1.54.04-1.72.02-.42-.03-.9-.13-1.45l-2.56-16.12c-.03-.83-.36-1.41-.97-1.72-.54-.27-1.34-.35-2.39-.25-.14 0-.73.09-1.77.21s-1.64.11-1.85-.04c.17-.05.29-.16.33-.3.03-.09-.13-1.46-.48-4.12-.17-1.24-.38-2.76-.61-4.55" class="m"/><path d="M118.26 113.1s-4.34-2.15-4.46-3.55c-.12-1.41 1.77-5.01 1.77-5.01s-1.59-1.04-1.96-1.35c0 0 1.53-2.44 2.26-4.27.74-1.84 3.61-5.74 4.4-7.09.8-1.35 4.03-4.71 5.07-5.32 1.03-.61 2.93-.67 4.09-.97 1.16-.31 4.89-.67 5.32-.92.43-.24 2.32-1.25 2.57-1.95l-.13-5.56s-.85-1.77-1.04-2.69c0 0-.98-1.04-1.41-2.75-.43-1.71-.86-3.11-.37-3.11h.49s-.12-2.38-.18-3.11-.58-1.68-.58-1.68l.22-.79-.03-.73-.12-.37.3-.18-.25-.61.39-.09.06-.89-.27-.64s.46.34.55.12c.09-.21.16-.6.16-.6s-.64-.77-.55-.71c.09.06.46.21.46.21l-.15-.37.59.18s-.38-.27-.28-.34c.09-.06.74.22.74.22l-.32-.5s.5.28.53.16c.03-.12-.21-.55-.21-.55s.43.34.52.21c.09-.12.12-.4.12-.4l.27-.18.4-.16.19-.58.3-.03s.24-.21.33-.18c.1.03.83-.34.83-.34l.37-.49.15-.43.33.15.22-.25s-.03-.4.06-.3c.08.09.36.34.36.34v-.34l.58.49.3.03-.27-.64.49.33.31.16-.21-.55s.28.31.49.46c.22.16.3.34.52.34s-.1-.43-.1-.43.58.46.81.55c.21.09.39-.25.39-.25s.12.37.43.4c.3.03.09-.43.09-.43s.43.33.71.55c.27.22.46.06.33-.16-.12-.21.46.74.71.95.24.21.31-.21.31-.21s.21.58.39.76c.19.19.55-.52.55-.52l-.09.55.27-.22s-.34.27-.07.27.49.16.49.16l.06.22s.24.3.34.36c.09.06 0 .03.27.28.27.24.33.79.33.79s.55.07.64.16c.1.09-.33.03-.33.03s.12.37.2.43c.1.06.4.58.4.58v.43l.18.49.22.16-.1.12v.21s.13.59.22.68l-.09-.09-.18-.16.37.7-.21-.15.05.61-.09.24.09.68.25.43-.3-.15.09.7.06.64-.12.46.09 1.04-.09.49s.55.33.49.88c-.06.55 0 1.37-.09 2.02-.09.64-.3 1.9-.46 2.11-.15.21-.61.67-.77.49-.14-.18-.36-.34-.36-.34s-.27 3.34-.25 3.92c.04.58-.06 3.45-.06 3.6s.4 1.29.4 1.29.85.52 1.29.85c.43.34 1.56 1.38 1.56 1.38l.88.39s1.53 1.04 2.05.95c.52-.09 1.71-.19 2.12 0 .39.18 2.11 1.18 2.93 1.64.82.47 2.66 1.56 3.39 2.57.73 1.01 3.49 5.32 4.48 6.7 1.02 1.37 3.68 5.23 4.31 6.33.65 1.09 2.66 3.3 1.65 5.22-1 1.93-7.05 5.5-7.05 5.5s.55 3.03-1.47 3.58c-2.02.55-5.96 1.01-5.96 1.01s.82 2.11.73 3.57c-.09 1.47-.36 5.87-1.28 6.97-.92 1.1-1.19 2.2-.92 2.94.27.73 1.29 1.56 1.56 2.84.28 1.28 1.06 5.1 1.06 7.01s.69 9.77 1.38 14.03c.68 4.26 1.38 13.75 1.51 17.46.14 3.71.96 8.52 0 12.1-.96 3.57-.68 8.66-2.06 12.65-1.37 4-3.99 9.9-3.71 12.93.28 3.02 1.65 9.21 1.37 10.45-.27 1.24-.13 2.62-.13 2.62s0 1.78 5.5 3.84c0 0 1.5.87 1.44 2.28l-.12 2.32s-.26 1.47-2.57 1.28c-2.32-.18-8.19-.85-10.33-2.51 0 0-.85-2.32-2.5-2.86-1.65-.55-2.38.3-4.04-.06-1.65-.38-3.3-1.04-3.61-1.53 0 0 .18-4.76.67-5.93 0 0-.3-1.35-.37-2.27-.06-.91 1.47-6.84 1.65-7.7.18-.85-1.22-3.25-.37-5.44.86-2.2 1.59-8.38 1.34-12.38-.25-4.01-.68-4.01.06-6.27.74-2.27 0-8.68-.17-11.31-.19-2.63-1.84-10.63-1.84-10.63s-1.6 2.07-2.93 7.58c-1.35 5.5-3.55 12.17-3.49 14.49.06 2.32 0 7.46.5 9.35.48 1.89 1.03 3.49.97 5.68-.05 2.2.06 3.49.06 5.81s.12 4.52.19 5.87c.06 1.34.36 3.54-.37 4.09-.75.55-1.6 2.2-1.41 3.54.18 1.35-.11 2.94-.11 2.94l-1.35 1.71s-.37 2.32-.31 3.97c.06 1.65-.97 3.54-3.18 3.67-2.2.12-6.17-.8-6.42-1.35s-1.1-1.89-.37-4.29c.73-2.38 2.02-5.06 2.02-5.06s.12-1.29-.79-2.32c-.92-1.04-2.21-2.08-2.15-3.79.06-1.72-.48-14.31-.18-19.68.3-5.38.55-9.48.48-11.25-.06-1.76-1.28-14.66-1.89-20.16-.61-5.5-1.04-9.04-.73-12.84.3-3.79.61-13.02.92-16.19.3-3.18 2.32-8.13 2.32-8.31s-1.71.54-2.75-1.53c-1.03-2.07-1.18-4.43-1.52-6.17-.07-.3-1.78 0-2.02-1.4-.24-1.41-.73-5.01-.73-5.01Z" class="i"/><path d="M118.26 113.1s-4.34-2.15-4.46-3.55c-.12-1.41 1.77-5.01 1.77-5.01s-1.59-1.04-1.96-1.35c0 0 1.53-2.44 2.26-4.27.74-1.84 3.61-5.74 4.4-7.09.8-1.35 4.03-4.71 5.07-5.32 1.03-.61 2.93-.67 4.09-.97 1.16-.31 4.89-.67 5.32-.92.43-.24 2.32-1.25 2.57-1.95l-.13-5.56s-.85-1.77-1.04-2.69c0 0-.98-1.04-1.41-2.75-.43-1.71-.86-3.11-.37-3.11h.49s-.12-2.38-.18-3.11-.58-1.68-.58-1.68l.22-.79-.03-.73-.12-.37.3-.18-.25-.61.39-.09.06-.89-.27-.64s.46.34.55.12c.09-.21.16-.6.16-.6s-.64-.77-.55-.71c.09.06.46.21.46.21l-.15-.37.59.18s-.38-.27-.28-.34c.09-.06.74.22.74.22l-.32-.5s.5.28.53.16c.03-.12-.21-.55-.21-.55s.43.34.52.21c.09-.12.12-.4.12-.4l.27-.18.4-.16.19-.58.3-.03s.24-.21.33-.18c.1.03.83-.34.83-.34l.37-.49.15-.43.33.15.22-.25s-.03-.4.06-.3c.08.09.36.34.36.34v-.34l.58.49.3.03-.27-.64.49.33.31.16-.21-.55s.28.31.49.46c.22.16.3.34.52.34s-.1-.43-.1-.43.58.46.81.55c.21.09.39-.25.39-.25s.12.37.43.4c.3.03.09-.43.09-.43s.43.33.71.55c.27.22.46.06.33-.16-.12-.21.46.74.71.95.24.21.31-.21.31-.21s.21.58.39.76c.19.19.55-.52.55-.52l-.09.55.27-.22s-.34.27-.07.27.49.16.49.16l.06.22s.24.3.34.36c.09.06 0 .03.27.28.27.24.33.79.33.79s.55.07.64.16c.1.09-.33.03-.33.03s.12.37.2.43c.1.06.4.58.4.58v.43l.18.49.22.16-.1.12v.21s.13.59.22.68l-.09-.09-.18-.16.37.7-.21-.15.05.61-.09.24.09.68.25.43-.3-.15.09.7.06.64-.12.46.09 1.04-.09.49s.55.33.49.88c-.06.55 0 1.37-.09 2.02-.09.64-.3 1.9-.46 2.11-.15.21-.61.67-.77.49-.14-.18-.36-.34-.36-.34s-.27 3.34-.25 3.92c.04.58-.06 3.45-.06 3.6s.4 1.29.4 1.29.85.52 1.29.85c.43.34 1.56 1.38 1.56 1.38l.88.39s1.53 1.04 2.05.95c.52-.09 1.71-.19 2.12 0 .39.18 2.11 1.18 2.93 1.64.82.47 2.66 1.56 3.39 2.57.73 1.01 3.49 5.32 4.48 6.7 1.02 1.37 3.68 5.23 4.31 6.33.65 1.09 2.66 3.3 1.65 5.22-1 1.93-7.05 5.5-7.05 5.5s.55 3.03-1.47 3.58c-2.02.55-5.96 1.01-5.96 1.01s.82 2.11.73 3.57c-.09 1.47-.36 5.87-1.28 6.97-.92 1.1-1.19 2.2-.92 2.94.27.73 1.29 1.56 1.56 2.84.28 1.28 1.06 5.1 1.06 7.01s.69 9.77 1.38 14.03c.68 4.26 1.38 13.75 1.51 17.46.14 3.71.96 8.52 0 12.1-.96 3.57-.68 8.66-2.06 12.65-1.37 4-3.99 9.9-3.71 12.93.28 3.02 1.65 9.21 1.37 10.45-.27 1.24-.13 2.62-.13 2.62s0 1.78 5.5 3.84c0 0 1.5.87 1.44 2.28l-.12 2.32s-.26 1.47-2.57 1.28c-2.32-.18-8.19-.85-10.33-2.51 0 0-.85-2.32-2.5-2.86-1.65-.55-2.38.3-4.04-.06-1.65-.38-3.3-1.04-3.61-1.53 0 0 .18-4.76.67-5.93 0 0-.3-1.35-.37-2.27-.06-.91 1.47-6.84 1.65-7.7.18-.85-1.22-3.25-.37-5.44.86-2.2 1.59-8.38 1.34-12.38-.25-4.01-.68-4.01.06-6.27.74-2.27 0-8.68-.17-11.31-.19-2.63-1.84-10.63-1.84-10.63s-1.6 2.07-2.93 7.58c-1.35 5.5-3.55 12.17-3.49 14.49.06 2.32 0 7.46.5 9.35.48 1.89 1.03 3.49.97 5.68-.05 2.2.06 3.49.06 5.81s.12 4.52.19 5.87c.06 1.34.36 3.54-.37 4.09-.75.55-1.6 2.2-1.41 3.54.18 1.35-.11 2.94-.11 2.94l-1.35 1.71s-.37 2.32-.31 3.97c.06 1.65-.97 3.54-3.18 3.67-2.2.12-6.17-.8-6.42-1.35s-1.1-1.89-.37-4.29c.73-2.38 2.02-5.06 2.02-5.06s.12-1.29-.79-2.32c-.92-1.04-2.21-2.08-2.15-3.79.06-1.72-.48-14.31-.18-19.68.3-5.38.55-9.48.48-11.25-.06-1.76-1.28-14.66-1.89-20.16-.61-5.5-1.04-9.04-.73-12.84.3-3.79.61-13.02.92-16.19.3-3.18 2.32-8.13 2.32-8.31s-1.71.54-2.75-1.53c-1.03-2.07-1.18-4.43-1.52-6.17-.07-.3-1.78 0-2.02-1.4-.24-1.41-.73-5.01-.73-5.01Z" class="m"/><path d="M151.64 83.22c-.3-.27-.79-.72-1.12-.99-.19.21-.38.41-.42.44-.09.06-2.01 2.17-2.9 2.9-.89.73-4.27 3.58-4.27 3.58s-.74-.55-1.75-1.29c-1.01-.73-5.41-3.79-5.41-3.79l-.21.09c-.35.21-.66.38-.81.45-.03.02-.07.04-.13.06.62.85 2.63 2.21 3.7 2.88 1.1.69 3.81 2.89 3.81 2.89s-2.75 3.16-3.58 4.17c-.83 1.01-2.29 2.75-2.29 2.75s1.38.23 1.56.19c.18-.05 5.32-6.69 7.01-8.16 1.7-1.46 4.89-4.12 5.44-4.67.36-.36.98-1.05 1.36-1.49ZM114.41 109.61c-.68-.73 1.04-1.28 1.04-1.28 2.51-.5 2.26-1.22 2.56-2.14.31-.92-.3-1.23-.3-1.23l10.94 4.89s-.6-1.58-.67-1.7c.12.08 2.12.39 0-.25-2.21-.67-12.04-4.89-12.84-5.19-.33-.13-.66-.34-.92-.53-.35.61-.61 1.01-.61 1.01.37.31 1.96 1.35 1.96 1.35s1.53.42 1.71.98c.18.55-.12.86-.67 1.28-.49.38-2.08.81-2.44.9-.25.72-.41 1.41-.37 1.86.12 1.4 4.46 3.55 4.46 3.55l-.3-1.41s-2.88-1.34-3.55-2.08ZM170.7 108.54c-1.14.73-3.92 2.66-3.92 2.66s-.08.86-.09 1.54c.47-.28 6.06-3.64 7.02-5.48 1.01-1.92-1-4.13-1.65-5.22-.2-.34-.59-.94-1.06-1.65-.14.06-.41.18-.68.42-.4.37-.8 1.35-2.85 1.23-2.05-.13-4.7.79-4.79.79-.08 0 .19.3-.15.73-.33.43-1.56 2.2-1.56 2.2s.7-.92 1.56-1.47c.85-.55 2.66-1.22 3.72-1.07 1.08.16 2.9.31 3.61-.21s1.29-.97 1.32-1.06c.03-.1.55.54.79 1.16.25.62 1.29 2.14.86 3-.43.85-1 1.71-2.14 2.44Z" class="n"/><path d="M133.16 89.86c.3-.9.79-2.78 1.43-3.78.64-1.01 1.3-1.98 1.79-2.32.48-.34.71-.41.71-.41l.68-1.28c-.82.23-2.1 1.35-2.1 1.35s-.6.45-1.16 1.24c-.56.79-1.35 2.43-1.68 3.44-.35 1.02-.98 3.6-1.17 4.53-.19.94-.26 1.99-.26 1.99s-.53.26-.75.56c-.22.3-.48.9-.41 1.2 0 0-.22.64-.15 1.04.08.42.15 1.05.9 1.09.75.04 1.65-.23 2.1-.9.44-.67.56-1.79 0-2.24-.56-.45-.94-.71-.94-.71s.11-.98.3-1.84c.19-.86.41-2.06.71-2.96Z" class="h"/><path d="M155.9 99.21c.25-.1.4-.22.5-.22s.47-.07.65-.3c.17-.22.17-.45.05-.68-.13-.22-.4-.42-.67-.22-.28.2-.45.44-.63.52-.17.07-.37.15-.37.3 0 0-.35.33-.78.42-.42.1-1.49.1-1.8-.22-.3-.33-.39-.48-.39-.48s.32-.33.58-.82c.25-.5.62-1.4.82-2.02.19-.62.5-2.55.5-2.55s.15.03.18-.2c.03-.22.15-.87.2-1.22.05-.35.17-1.25.05-1.6-.13-.34-.2-.92-.75-1.33-.55-.41-1.28-.75-1.31-.81-.02-.05-.15-.78-.24-1.22-.09-.4-.09-.87-.33-1.52-.27-.71-.98-1.68-1.21-1.87-.02-.02-.34-.29-.34-.29s-.36-.29-1.04-.59c-.58-.26-1.65-.45-1.65-.45s.71.37 1.09.65c.37.28.99.82 1.41 1.25.41.45.82 1.02.96 1.62.12.48.32 1.35.31 1.71-.01.4-.05.62-.05.62s-.61.12-.89.26c-.27.15-.85.6-.95 1.02-.09.42-.09 1.27-.07 1.62.03.35.1 1.59.1 1.59l.1.03s.08.78.18 1.53c.09.75.4 2.07.62 2.59.23.53.75 1.65.97 1.95 0 0-.54.13-1.04-.22s-.73-.77-.73-.77.13-.18.03-.25c-.1-.08-.75-1.05-.75-1.05s-.38-.28-.68 0c-.3.27-.25.55-.17.65.07.1.87 1.04.87 1.04l.15-.02s.43.62.75.82c.33.2.82.63 1.84.35 0 0 .65.74 1.41.85.75.1 1.42-.07 2.19-.44 0 0 .1.07.35-.03Zm-4.38-2.76c-.25-.69-.47-1.22-.62-1.96-.15-.73-.35-1.59-.36-2.15h.1s-.02-.42-.05-.7c-.03-.29-.09-1.13-.09-1.41s-.1-1.05.21-1.27c.31-.23.68-.43 1.42-.39.61.03 1.52.59 1.68 1.08.18.5.17 1.02.14 1.46-.03.45-.11 1.2-.13 1.35-.03.16-.07.34.05.35 0 0-.05.5-.14.95-.08.45-.35 1.49-.6 2.12-.25.64-.65 1.62-.95 1.92 0 0-.4-.67-.66-1.35Z" class="k"/><path d="M146.88 135.88c-.05-.66-.26-1.77-.36-2.35l-1.28-3c-.32-.29-.48-.44-.71-.36-.21.07-.28-.08-.43.04-.14.13-.39.32-.46.42-.07.09-.34.02-.6-.05-.26-.08-.6-.32-1.04-.08-.44.25-1.16.8-1.33.97-.17.16-.72.74-.8.89 0 0 .1.32.39.34l.74-.53s-.05.39-.17.89c-.13.51-.1 1.48-.25 1.91-.14.44-.19 1.69-.21 2-.02.32.1 1.42.29 1.74.2.31.34.75 1.01.8.69.05 1.27-1.06 1.27-1.06s.29.89.69 1.21c.41.31.87.7 1.45.41s1.25-1.19 1.47-1.76.36-1.79.31-2.43Zm-4.3 2.39c-.2.62-.56.94-1.16.79-.61-.15-.56-1.08-.54-1.59.03-.51.35-1.69.51-2.27.17-.58.19-1.61.27-2.12.08-.5.24-1.06.24-1.06s.15.21.15.7.26 1.67.39 2.24c.12.58.16.92.29 1.45.12.54.05 1.24-.15 1.86Zm.46-2.53s-.05-.34-.09-.75c-.06-.42-.29-1.72-.29-2.56s.18-1.21.5-1.33c.19-.07.39.05.39.18 0 .12-.05 1.25-.08 1.71-.02.46-.04 1.21-.12 1.66-.06.47-.31 1.1-.31 1.1Zm2.87 2.31c-.17.32-.64.97-1.04 1.04-.38.08-.87-.04-1.13-.68-.27-.62-.44-.84-.29-1.42.14-.59.24-1.45.3-1.76.08-.31.2-1.28.2-1.67s.26-2.03.26-2.24c0 0 .34.41.38.84.06.44.4 1.5.47 1.78.07.3.27.61.43.73.18.13.32.39.34.79.03.42.13.99.1 1.38-.03.39.14.9-.03 1.21Z" class="j"/><path d="M204.42 134.52c.04.13-27.52-.96-28.18-.51-.68.45-2.28 11.69-2.6 14.44-.31 2.74.06 6.07.24 11.42.19 5.35.51 12.44.46 13.16-.04.72-.8 1.62-.67 1.88.13.28.13.64.08.86-.04.22-.21 2.79-.48 3.64-.27.85-1.62 5.08-1.79 8.63-.18 3.56.01 13.66-.07 15.2-.09 1.52-.63 3.19-.45 3.64.18.45.5 2.92.27 3.68-.22.77-1.75 2.92-1.25 3.56.5.63 1.18 1.21 1.18 1.21s-.45 1.35-.45 1.75.18.81.18.81-.4 1.07-.67 1.97c-.27.9 0 2.34.63 2.83.63.5 3.06 1.21 4.85 1.16 1.81-.05 3.37-.94 4.09-1.4.72-.45.54-1.21.54-1.48s-.13-.68-.13-.68.18-1.39.13-2.07c0 0 .4-.36.44-.81.05-.44-.05-1.07-.05-1.07s.45-.54.32-.73c-.14-.18-.27-.49-.27-.49s.76-.22.63-.64c-.13-.4-.81-1.44-.81-1.44s1.12-1.39 1.3-1.98c.18-.59-.32-1.97-.81-3.24-.5-1.26-.85-2.64-.68-3.36.18-.73.72-1.31.72-2.21 0-.9-.29-7.69-.47-9.57-.18-1.89-.05-2.52-.05-2.52s.23-.24.05-.55c-.18-.31-.13-.99-.23-1.25-.09-.27.27-.58.23-.81-.05-.22.18-1.93.22-2.42.04-.5 1.08-2.7 1.3-3.15.22-.45.09-1.17-.04-1.4-.13-.22-.32-.94-.18-.98.14-.05 2-6.94 2.97-10.41.96-3.47 2.41-7.58 3.53-12.34 1.12-4.76 1.44-7.5 1.44-7.5h1.05c.32 0 2.34 7.26 4.12 12.33 1.79 5.07 4.62 14.83 5.27 15.71.64.89.8 1.61.73 1.93-.08.33-.24.81.16.98.4.15.72.73.72.73s.58 5.56 1.3 8.22c.74 2.65 2.75 7.41 3.32 8.7.56 1.29 1.7 10.64 1.79 13.06.09 2.42.65 2.9.97 3.06.32.15.64.32.32.73-.31.4-1.45 2.18-1.29 2.41.16.25.56.57.56.57v1.04l-.15.81s-.24.56-.08 1.28c.16.73.16 1.21.64 1.37.49.17 2.58.64 3.22.56.65-.08.77-.24 1.33-.13.57.13 2.9.76 3.23.8.33.04-.08.21 1.1.36 1.16.16 3.91.21 5.56.16 1.65-.04 2.22-.4 2.1-.81-.12-.4-.36-.61-.36-.61s-.12-1.25-1.01-1.89c-.89-.64-2.46-1.45-2.46-1.45s-.04-.37-.27-.53c-.25-.15-.41-.48-.49-.6-.08-.12-.04-.44-.21-.6-.15-.16-.48-.69-.48-.69s.2-.53-.04-.93c-.25-.4-.73-1.33-.77-1.45-.04-.12-.57-3.47-.65-4.07-.09-.61-1.38-1.09-1.38-1.09s-1.69-7.59-2.01-8.67c-.32-1.07.21-.64-.27-3.44-.48-2.79-1.14-7.84-1.41-8.43-.27-.59-1.03-1.35-1.03-1.35s.27-1.5.17-2.2c-.11-.7-.81-1.61-.81-1.61l-.64-.96.15-1.93s-.33-.7-.7-1.4c-.38-.7-.65-2.85-.65-3.07s-.72-15.9-1.26-24.83c-.55-8.92-4.86-16.97-4.86-16.97Z" class="m"/><path d="M198.51 142.39s-6.79.96-10.19-.05c-3.39-1.01-4.3-1.52-4.3-1.52s-4.86 8.16-5.59 9.23c-.74 1.08-1.93.91-2.55.74-.62-.17-2.15-.85-2.15-.85s-2.77-1.41-4.42-3.05c-1.64-1.64-2.16-1.86-2.1-2.49.06-.62.62-1.25.62-1.25l.06-.45-.51-.79s1.07-2.95 1.81-4.25c.74-1.31 1.24-1.76 1.7-1.87.45-.11.9.11.9.11s1.92-3.23 2.72-3.62c.78-.4 2.31-.18 2.48-.07.18.12 1.37 1.47 1.37 1.47l-.79 2.5s.05.57.23.57c.17 0 .63-.91 1.24-.91.63 0 2.33.96 2.33.96l.34.34s2.82-5.67 3.23-5.5c.38.17 1.41.79 1.41 1.07s-2.89 5.33-2.89 5.33l.52.51s5.72.95 8.95 1.01c3.22.05 5.25-1.54 5.25-1.54s-.96-4.41-1.13-4.64c-.16-.22.22-.79.22-.79s3.11-1.14 3.34-1.14 1.08 1.48 1.08 1.48 1.24-.57 1.64-.97c.39-.4 1.25-.73 1.47-.68.22.06 1.35 2.66 1.35 2.66s-.5-.06-.33.39c.17.45.45 1.02.45 1.02s.28-.39.4-.28c.11.1.34.5.34.5s1.24-.16 1.7-.16.73 1.52.9 1.86c.17.34.06 1.13.06 1.13l.51 1.53s.79.06.85.57c.07.51.41 4.35.41 4.35l1.42 4.93s-.79 1.64-1.41 1.98c-.63.34-1.02.35-1.02.35s-.56 1.02-1.35 1.07c-.79.06-1.13-.28-1.13-.28s-.79.46-1.13 1.31c-.34.86-.96.97-1.63 1.14-.68.17-1.19-.11-1.19-.11s-.51.51-1.41.51c-.91 0-1.98-.18-1.98-.18s-.57-3.9-1.26-6.45c-.68-2.54-.79-6.73-.79-6.73Z" class="m"/><path d="M208.8 108.49s5.52-2.58 6.39-3.12c.85-.55 1.12-1.41 1.12-1.41l-.8-.27s-.86-1.55-.92-2.04c-.05-.48-.11-1.07-.33-1.77-.21-.7-2.36-3.13-3-3.78-.65-.64-2.41-1.46-4.55-2.37-2.16-.91-5.35-.93-5.35-.93s-.86.43-1.67.32c-.81-.1-8.65-.21-10.22-.63-1.56-.43-2.63-.7-2.63-.7s-4.25.38-5.96 1.13c-1.72.76-2.74 2.32-3.6 2.69-.86.38-2.69 2-3.92 2.64-1.23.64-1.77.7-1.72 1.02.07.33 0 2.15 2.38 5.26 2.37 3.12 3.55 3.71 3.93 3.6.38-.1 1.55-.75 1.55-.75s-.11 2.74.93 5.86c1.02 3.12 1.42 6.48 1.42 6.48s-.32-.09-.27.73c.06.98.33 1.36.25 1.98-.06.5-.38 2.31-.38 2.31s-2.15-.85-1.93-.37c.21.49-.59 2.58-.59 2.58s-1.72 1.88-1.89 1.99c-.15.1-2.9 2.58-2.9 2.58s2.16 3.55 5.6 5.64c3.44 2.1 11.61 2.15 15.41.79 3.82-1.35 9.41-4.36 9.41-4.36s.65-.81.05-1.24c-.59-.43-1.07-2.14-1.07-2.14s-.06-.59 0-.7c.05-.1 1.45-2.7 1.34-3.08-.1-.37-.27-.64-.27-.64s.21-.59.15-.8c-.05-.21-.05-.64-.05-.64s.58-3.49.7-3.74c.1-.21.34-1.38.38-1.73.05-.4-.07-.54-.07-.54s3.38-1.46 4.13-5.43c.05-2.79-1.08-4.41-1.08-4.41Z" class="m"/><path d="M177.59 105.48s-4.34 2.91-7.29 4.29-3.01 1.7-3.08 2.46c-.06.75.64 4.02.89 6.1.25 2.07.89 4.97 2.15 6.72 1.26 1.76-.25 4.53-1.51 3.9-1.27-.63-3.78-3.51-4.92-7.35-1.14-3.84-2.34-7.36-2.53-9.31-.19-1.95.44-3.02.87-3.27.44-.25 3.9-3.65 6.03-5.48 2.14-1.82 3.58-3.58 4.52-3.84 0 0 2.59 1.69 4.85 5.78Z" class="m"/><path d="M170.64 123.58c-.17.03-1.74 2.27-2.3 3.42-.56 1.15-1.03 1.84-1.17 2.05-.13.21-.13.45.06.77.18.33 1.28 2.38 1.76 2.8.48.43 1.34.66 1.76.61.43-.05 3.82-1.47 3.82-1.47s1.41-1.33 2.18-1.68c.78-.35 1.42-.59 1.42-.59s2.48.8 3.12.9c.64.11 1.09-.48 1.09-.48l.11-.67s.45.24.87-.03c.43-.26.43-.93.43-.93s-1.18-.98-1.72-1.47c-.53-.47-.9-.77-.9-.77s1.95.13 2.86-.22c.91-.35.8-1.09.43-1.17-.37-.08-1.12-.15-1.12-.15s-.16-.24-.27-.22c-.11.03-.4.16-.4.16s-.42-.5-.61-.56c-.19-.05-.67 0-1.42-.21-.74-.22-1.92.13-1.92.13s-.33-.13-.83.05c-.51.18-2.11 1.58-2.91 1.87-.79.29-1.47.45-1.47.45s.16-.32-.08-.35c-.25-.03-.38.06-.38.06l-2.42-2.32ZM226.4 106.32s-.67 1.11-3.92 1.56c-3.25.45-4.17.12-4.44-.26-.27-.38-.18-1.36-.18-1.36l.56-1.52s-.28-.01-.31-.34c-.03-.33-.15-.91-.15-.91l-.91-.62s-1.77-1.35-2.28-1.87c-.51-.52-1.29-1.99-2-2.47-.71-.49-1.55-1.1-1.57-1.35-.03-.25.57-1.53 1.9-1.21 1.33.31 2.19.91 2.39 1.04.2.13.81 1.09.81 1.09l.44.27.49-.1s-.33-3.16.42-3.41 1.6-.04 2.15.27c.56.31.42.68.42.68s.27-.32 1.11-.11c.85.21 1.03.79 1.03.79s.21-.28.95-.12c.72.16.7.65.7.65s.25-.19.98.05c.72.24.58 1.58.58 1.58s.17 1.4-.2 2.28c-.37.89-.54 1.73-.54 1.73s.57.8.67 1.38c.09.57.23 1.11.23 1.11s.7.69.67 1.18Z" class="m"/><path d="M224.62 103.77s-2.45.05-4.14.86c0 0-1.96 3.53-3.34 6.52-1.38 2.99-1.87 3.53-1.84 3.39.05-.13-.31-2.95-.23-5.04.09-2.1-.14-4.23-.14-4.23s-1.55.94-3.3 1.78c-1.74.86-2.9 1.3-2.9 1.3s1.12 2.71 1.08 4.15c-.05 1.42-1.29 3.39-1.29 3.39s.09 2.24 1.71 5.18c1.6 2.94 2.1 3.39 2.68 4.23.58.85.4.76 1.29.85.9.09 1.78-.5 2.72-1.03.93-.53 3.47-3.7 5.21-10.67 1.73-6.96 2.48-10.67 2.48-10.67ZM171.64 79.94l68.23 26.92s1.29.28 1.57-.43-.15-1.64-.15-1.64l-68.9-26.68s-2.32.26-.75 1.83Z" class="m"/><path d="M176.41 80.58c-.29.82-.96 1.18-.96 1.18s-4.63-1.76-5.06-1.98c-.43-.21-2.47-1.72-2.47-1.72s.05-1.19.69-1.24c0 0 2.85.64 3.23.75.37.11 4.41 1.5 4.62 1.72.21.21.16.7-.06 1.28Z" class="m"/><path d="M162.38 68.35c-.49 1.43-4.72 8.39-7.47 13.36-.06.09-.01.18.03.2.7.26 2.84 1.02 3.1 1.12.02-.02.21.07.29 0 1.05-.95 7.21-6.64 7.21-6.64s.19-.14.37-.07c.1.04 3.48 1.3 3.48 1.3l-.23.6s-2.48-.92-3.2-1.19c-.14-.06-.18.02-.22 0-.27.23-7.11 6.65-7.11 6.65l-.35.09s-4.36-1.31-4.54-1.4c-.17-.09-.05-.41-.05-.41l8.1-13.93.58.31Z" class="m"/><path d="M165.84 68.13c.25-.65-.87-3.83-4.67-3-.62.14-8.06 13.49-7.92 13.82.69 1.78 2.26 3.04 4.52 1.88.52-.26 7.46-11.05 8.07-12.7ZM187.28 92.2s1.58-.14 2.69-1.02c1.1-.88 1.52-3.05 1.52-3.05s-.91.35-1.52-.05c-.62-.41-.71-.93-1.18-2.33-.47-1.41-.87-2.25-1.35-3.49-.47-1.23-.53-2.31-.33-2.87.21-.55.38-1.2.38-1.2l-.05-.26s-.3-.06-.44-.26c0 0 .23-.03.38-.15 0 0 0-.44.06-.64.05-.21-.09-.61-.09-.61s-.44-2.05-.18-3.25c.26-1.21 2.25-3.78 4.76-4.84 2.14-.9 5.65-.9 8.38 1.8 1.64 1.64 2.07 2.25 2.55 4.15.47 1.9-.56 3.1-.56 3.1s.45 1.2.36 1.79c-.08.58-1.13 2.9-1.72 3.36-.59.47-1.06.94-1.06.94s-1.16 1.55-1.05 4.3c.13 2.74.47 4.27 2.52 5.58 0 0 .65.82-1.57 3.34-2.23 2.52-4.56 3.19-5.09 3.05-.53-.15-3.3-1.35-5.5-4.12-2.38-2.98-1.9-3.27-1.9-3.27Z" class="m"/><path d="M188.57 76.73s-.73-.3-1.41-1.14c-1.41-1.78-1.76-2.46-1.63-2.69.11-.23.43-.21.43-.21l.3-.47s-.04-.5.09-.5c.11 0 .35.15.35.15s.68-1.26 1.03-1.59c.35-.32 1.75-1.64 2.43-1.93.67-.29.43-.26 1.43-.77 1-.49 1.81-1.11 3.3-1.29 1.5-.18 4.1.55 4.8 1.37.71.82 1.76 1.32 1.76 1.32s-.79-.06-1.4-.59c0 0 .58.7 1.35 1.14.75.44 1.26 1.02 1.73 1.75s.73 2.52.5 3.13c0 0-.03-.76-.21-.85 0 0 .15.78 0 1.46-.15.67-.76 2.37-.76 2.37l-.2.41s.2.67.2.73c0 .05 1.06-.38 1.94-.27.88.11 1.43.57 1.66 1.01.23.44.39.8.39.8s-.45-.88-1.09-1.23c-.64-.35-1.08-.3-1.31-.29-.24 0-.74.17-.74.17s2.02-.38 3.57 1.38c1.55 1.76 1.35 2.87 1.12 3.72-.21.78-.42 1.64-.69 2.24-.27.57-.88 1.67-.53 2.58.35.9.82.99.82.99s-.56.29-.9-.09l-.06.35s-.13-.19-.27-.17c-.23.02-.28-.12-.41-.03-.2.15-.76-1-.9-1.38 0 0 .06.59.25.95.25.47-.27.18-.49-.24-.2-.39-.55-.52-.37-.26.18.26-.18.12-.36-.08s-.18-.25-.26-.43c-.09-.17.42 1.01-.17.59-.25-.17-.56-.48-.92-1.93-.42-1.77.43-3.14-.75-3.88-.61-.38-1.18.09-1.18.09s-.3.44-.74.79c-.43.35-.7.91-.99 1.43-.3.53-.47 1.55-.53 1.76-.05.21 0 .94 0 .94s-.39-1.67 0-2.99c.38-1.32 1.08-2.63 1.08-2.63s1.08-.42 1.51-1.29c.44-.87.58-1.2.64-2.37.05-1.17-.35-1.96-.7-1.96-.36 0-1.15 1-1.15 1s.18.99-.08 1.7c-.27.7.06-.49-.27-1.47-.33-.96-.79-1.49-1.29-2.63-.47-1.08-.82-1.4-1.44-1.63-1.25-.47-2.88-.3-3.6-.49-1.08-.3-2.17-.26-1.55 0 .61.26 2.32 1.43 1.58 1.23-.73-.21-1.29.12-3.4-.79-1.12-.47-1.31-.64-1.14-.55.18.08 1.88 1.54 3.16 1.75 1.29.21 1.99.38 2.29.52.07.03-.68.39-2.58-.2-1.9-.58-2.58-.61-3.28-1.05-.7-.44-.58.47.44.99 1.03.53 3.84 1.75 2.87 1.46-.96-.3-2.19-.53-2.96-1.02-.76-.49-2.19-1.31-1.46-.73.73.59 1.76 1.46 2.63 1.81.88.35 1.73.99.99.68-.73-.33-1.9-.76-1.78-.65.25.25.53.5-.7-.02Z" class="m"/><path d="M64.68 313.53c-4.36-3.97-9.96-6.32-15.87-6.32-12.86 0-24.37 10.28-24.37 24.45s11.82 24.45 24.37 24.45c6.8 0 12.15-2.51 16.44-6.55l4.94 5.58c-5.51 5.02-13.61 8.27-21.38 8.27-20.89 0-32.63-16.52-32.63-31.75s11.74-31.74 32.63-31.74c8.18 0 16.2 3.32 21.14 7.86l-5.27 5.75ZM112.51 299.93c20.89 0 32.63 16.52 32.63 31.74s-11.74 31.75-32.63 31.75-32.63-16.52-32.63-31.75 11.74-31.74 32.63-31.74Zm0 56.19c12.55 0 24.38-9.87 24.38-24.45s-11.83-24.45-24.38-24.45-24.37 9.88-24.37 24.45 11.82 24.45 24.37 24.45ZM187.87 318.48c-1.05-7.28-5.25-11.74-11.82-11.74-8.74 0-11.09 5.75-11.09 9.96 0 4.62 2.91 7.54 8.98 9.79l7.78 2.92c9.79 3.64 14.33 9.39 14.33 16.85 0 9.96-7.94 17.17-19.76 17.17-11.17 0-19.11-5.91-20.08-18.22h7.78c.65 6.71 4.05 11.41 12.71 11.41 6.73 0 11.58-4.29 11.58-9.71 0-4.78-3.96-7.86-9.55-10.04l-7.86-3.08c-9.15-3.57-13.68-8.91-13.68-16.85 0-10.61 8.82-17 18.95-17s18.13 6.08 19.03 18.54h-7.29ZM249.15 300.91h7.78v61.54h-7.78V334.6h-32.14v27.85h-7.78v-61.54h7.78v26.39h32.14v-26.39Z" class="n"/></svg>