<?xml version="1.0" encoding="UTF-8"?>
<svg id="Layer_1" xmlns="http://www.w3.org/2000/svg" version="1.1" viewBox="0 0 1146.7 207.9">
  <!-- Generator: Adobe Illustrator 29.0.1, SVG Export Plug-In . SVG Version: 2.1.0 Build 192)  -->
  <defs>
    <style>
      .st0 {
        fill: #042e43;
      }
    </style>
  </defs>
  <path class="st0" d="M228.3,50.6s0,0,0,0,0,0,0,0h0c-5,0-9.3,3.3-10.9,7.8h0l-18.8,57.4-19.2-56.9s0,0,0,0l-.2-.5h0c-1.6-4.5-5.9-7.7-10.9-7.8h0s0,0,0,0,0,0,0,0h-6.3s0,0,0,0,0,0,0,0h-.1c-5,.1-9.2,3.3-10.8,7.8h0v.3c-.1,0-.2.2-.2.3l-19.4,56.8-18.2-56.7c-1.4-4.8-5.9-8.4-11.2-8.4h0s0,0,0,0,0,0,0,0h-23.8l37.9,107.6h26.6l22.4-65.8,22.4,65.8h26.3l38.1-107.6h-22.9,0Z"/>
  <path class="st0" d="M283.9.9c-10.2,0-18.5,8.5-18.5,18.5s8.3,18.5,18.5,18.5,18.5-8.5,18.5-18.5S294.2.9,283.9.9Z"/>
  <path class="st0" d="M268,160.4c0,11.5-5.4,18.5-15.2,18.5h-9.9v28.1h16.7c24.6,0,40.3-15.9,40.3-44.9V50.6h-31.8v109.8h0Z"/>
  <path class="st0" d="M373.9,29.9h15V1.8h-21.7c-24.6,0-40.3,15.9-40.3,44.9v111.5h31.8v-81.6h27.8v-26.1h-27.8v-2.1c0-11.5,5.4-18.5,15.2-18.5h0Z"/>
  <path class="st0" d="M32.7,68.2h0c0,0,0,0,0,0,0,0,0,0,0,0h0s-5.6-17.6-5.6-17.6H1.3v107.6h31.6v-43.8c0-21.1,10.5-34.4,28.1-34.3,1.6,0,5.3,0,6.2,0v-29.5c-13.9,0-28.8,5.2-34.4,17.6h0Z"/>
  <path class="st0" d="M465.9,49.8c11.8,0,20.6,8.7,20.6,20s-8.9,20-20.6,20-20.6-8.7-20.6-20,8.9-20,20.6-20ZM465.9,79.6c5.2,0,9.5-4.3,9.5-9.8s-4.3-9.8-9.5-9.8-9.5,4.3-9.5,9.8,4.3,9.8,9.5,9.8Z"/>
  <path class="st0" d="M492.4,88.9v-53.9h11.2v21c2.7-3.9,7.3-6,12.3-6,10.2,0,18,8.6,18,20s-7.8,20-18,20-9.6-1.8-12.3-5.9l-1.5,4.9h-9.6ZM512.9,60c-5.5,0-9.8,4.4-9.8,9.9s4.3,9.9,9.8,9.9,9.8-4.4,9.8-9.9-4.3-9.9-9.8-9.9Z"/>
  <path class="st0" d="M577.1,79.8c-3.2,6.2-9.3,10.1-17.6,10.1-11.9,0-20.2-8.2-20.2-20s8.5-20,19.7-20,19.4,8.4,19.4,20.3,0,2.3-.2,2.8h-27.9c.4,4.5,4.5,7.7,9.2,7.7s6.4-1.8,8.2-4.6l9.5,3.8h0ZM567.4,65.6c-.5-4.1-3.9-7-8.5-7s-8.1,3.4-8.5,7h17Z"/>
  <path class="st0" d="M736.8,49.8c11.8,0,20.6,8.7,20.6,20s-8.9,20-20.6,20-20.6-8.7-20.6-20,8.9-20,20.6-20ZM736.8,79.6c5.2,0,9.5-4.3,9.5-9.8s-4.3-9.8-9.5-9.8-9.5,4.3-9.5,9.8,4.3,9.8,9.5,9.8Z"/>
  <path class="st0" d="M783,49.8c11.8,0,20.6,8.7,20.6,20s-8.9,20-20.6,20-20.6-8.7-20.6-20,8.9-20,20.6-20ZM783,79.6c5.2,0,9.5-4.3,9.5-9.8s-4.3-9.8-9.5-9.8-9.5,4.3-9.5,9.8,4.3,9.8,9.5,9.8Z"/>
  <path class="st0" d="M850,34.9v53.9h-9.6l-1.6-5.1c-2.6,3.9-7.3,6-12.3,6-10.2,0-18-8.6-18-20s7.8-20,18-20,9.7,1.9,12.3,5.9v-20.8h11.2ZM829.5,79.7c5.5,0,9.8-4.4,9.8-9.9s-4.3-9.9-9.8-9.9-9.8,4.4-9.8,9.9,4.3,9.9,9.8,9.9Z"/>
  <path class="st0" d="M882.6,46.3c-3.6,0-6.5-3-6.5-6.5s2.9-6.5,6.5-6.5,6.5,3,6.5,6.5-2.9,6.5-6.5,6.5Z"/>
  <path class="st0" d="M914.4,49.8c11.8,0,20.6,8.7,20.6,20s-8.9,20-20.6,20-20.6-8.7-20.6-20,8.9-20,20.6-20ZM914.4,79.6c5.2,0,9.5-4.3,9.5-9.8s-4.3-9.8-9.5-9.8-9.5,4.3-9.5,9.8,4.3,9.8,9.5,9.8Z"/>
  <path class="st0" d="M952.2,88.9h-11.2v-53.9h11.2v20.7c2.3-3.7,6.2-5.9,11.2-5.9,8.7,0,14,5.9,14,15.6v23.5h-11.2v-21c0-4.9-2.5-7.8-6.8-7.8s-7.2,3.3-7.2,8.6v20.2Z"/>
  <path class="st0" d="M513.2,140.2c0,5.3-2.9,8.6-7.2,8.6s-6.9-2.9-6.9-7.9v-20.9h-11.2v23.5c0,9.6,5.3,15.6,14,15.6s8.9-2.2,11.2-5.9l1.6,4.9h9.7v-38.1h-11.2v20.2h0Z"/>
  <path class="st0" d="M554,119.1c-5.1,0-8.9,2.2-11.2,5.9l-1.6-4.9h-9.7v38.1h11.2v-20.2c0-5.3,2.8-8.6,7.2-8.6s6.8,2.9,6.8,7.9v20.9h11.2v-23.5c0-9.6-5.3-15.6-14-15.6h0Z"/>
  <path class="st0" d="M786.5,119.1c-5.1,0-8.9,2.2-11.2,5.9l-1.6-4.9h-9.7v38.1h11.2v-20.2c0-5.3,2.8-8.6,7.2-8.6s6.8,2.9,6.8,7.9v20.9h11.2v-23.5c0-9.6-5.3-15.6-14-15.6h0Z"/>
  <path class="st0" d="M1120.1,88.9h-11.2v-38.1h9.7l1.6,4.9c2.3-3.7,6.2-5.9,11.2-5.9,8.7,0,14,5.9,14,15.6v23.5h-11.2v-20.9c0-5-2.5-7.9-6.8-7.9s-7.2,3.2-7.2,8.6v20.2h0Z"/>
  <path class="st0" d="M1039,61.4c0,1.4,1.1,2.4,3.2,2.9l4.8,1.2c7.2,1.8,11,5.9,11,11.2,0,7.6-6.5,13-15.3,13s-13.6-3.5-16.1-9.3l9.1-5c1.4,3.2,4.2,5.2,7.1,5.2s4-1.1,4-2.9-1.2-2.3-3.5-2.9l-4.5-1.1c-7.2-1.7-10.9-5.7-10.9-11.7s6-12.3,14.7-12.3,12.7,3.5,15.1,8.9l-9.2,4.9c-1.2-2.9-3.7-4.7-6-4.7s-3.5,1.1-3.5,2.6h0Z"/>
  <path class="st0" d="M1082.8,49.8c11.8,0,20.6,8.7,20.6,20s-8.8,20-20.6,20-20.6-8.7-20.6-20,8.8-20,20.6-20ZM1082.8,79.6c5.2,0,9.6-4.3,9.6-9.8s-4.3-9.8-9.6-9.8-9.6,4.3-9.6,9.8,4.3,9.8,9.6,9.8Z"/>
  <path class="st0" d="M461.7,119.1c11.8,0,20.6,8.7,20.6,20s-8.9,20-20.6,20-20.6-8.7-20.6-20,8.9-20,20.6-20ZM461.7,148.9c5.2,0,9.5-4.3,9.5-9.8s-4.3-9.8-9.5-9.8-9.5,4.3-9.5,9.8,4.3,9.8,9.5,9.8Z"/>
  <path class="st0" d="M663.2,120.1v38.1h-9.4l-1.6-5.1c-2.6,3.9-7.3,6-12.3,6-10.2,0-18-8.6-18-20s7.8-20,18-20,9.7,1.9,12.3,5.9v-4.9h11ZM642.8,148.9c5.5,0,9.8-4.4,9.8-9.9s-4.3-9.9-9.8-9.9-9.8,4.4-9.8,9.9,4.3,9.9,9.8,9.9Z"/>
  <path class="st0" d="M705.5,115.6c-3.6,0-6.5-3-6.5-6.5s2.9-6.5,6.5-6.5,6.5,3,6.5,6.5-2.9,6.5-6.5,6.5ZM699.9,158.1v-38.1h11.2v38.1h-11.2Z"/>
  <path class="st0" d="M737.6,119.1c11.8,0,20.6,8.7,20.6,20s-8.9,20-20.6,20-20.6-8.7-20.6-20,8.9-20,20.6-20ZM737.6,148.9c5.2,0,9.5-4.3,9.5-9.8s-4.3-9.8-9.5-9.8-9.5,4.3-9.5,9.8,4.3,9.8,9.5,9.8Z"/>
  <path class="st0" d="M706.6,50.8h0c-1.8,0-3.3,1.2-3.9,2.8h0l-6.6,20.3-6.8-20.1s0,0,0,0v-.2h0c-.6-1.6-2.1-2.7-3.8-2.7h-2.4c-1.8,0-3.3,1.2-3.8,2.8h0c0,.1,0,.2,0,.2l-6.8,20.1-6.4-20c-.5-1.7-2.1-3-3.9-3h-8.5l13.4,38h9.4l7.9-23.2,7.9,23.2h9.3l13.5-38h-8.1Z"/>
  <path class="st0" d="M877,89.6c0,4.1-1.9,6.5-5.4,6.5h-3.5v9.9h5.9c8.7,0,14.2-5.6,14.2-15.9v-39.4h-11.2v38.8h0Z"/>
  <path class="st0" d="M630.9,78.9h5.3v9.9h-7.7c-8.7,0-14.2-5.6-14.2-15.9v-33.3h11.2v11.2h9.8v9.2h-9.8v12.3c0,4.1,1.9,6.5,5.4,6.5h0Z"/>
  <path class="st0" d="M433.8,112.7h5.3v-9.9h-7.7c-8.7,0-14.2,5.6-14.2,15.9v39.4h11.2v-28.8h9.8v-9.2h-9.8v-.8c0-4.1,1.9-6.5,5.4-6.5h0Z"/>
  <path class="st0" d="M430,57h0s0,0,0,0h0s-2-6.2-2-6.2h-9.1v38h11.1v-15.5c0-7.5,3.7-12.2,9.9-12.1.6,0,1.9,0,2.2,0v-10.4c-4.9,0-10.2,1.8-12.2,6.2h0Z"/>
  <path class="st0" d="M596,57h0s0,0,0,0h0s-2-6.2-2-6.2h-9.1v38h11.1v-15.5c0-7.5,3.7-12.2,9.9-12.1.6,0,1.9,0,2.2,0v-10.4c-4.9,0-10.2,1.8-12.2,6.2h0Z"/>
  <path class="st0" d="M615.5,104.2v53.9h-9.6l-1.6-5.1c-2.6,3.9-7.3,6-12.3,6-10.2,0-18-8.6-18-20s7.8-20,18-20,9.7,1.9,12.3,5.9v-20.8h11.2ZM594.9,148.9c5.5,0,9.8-4.4,9.8-9.9s-4.3-9.9-9.8-9.9-9.8,4.4-9.8,9.9,4.3,9.9,9.8,9.9Z"/>
  <path class="st0" d="M996.3,88.9h-11.2v-38.1h9.7l1.6,4.9c2.3-3.7,6.2-5.9,11.2-5.9,8.7,0,14,5.9,14,15.6v23.5h-11.2v-20.9c0-5-2.5-7.9-6.8-7.9s-7.2,3.2-7.2,8.6v20.2h0Z"/>
  <path class="st0" d="M687,148.1h5.3v9.9h-7.7c-8.7,0-14.2-5.6-14.2-15.9v-33.3h11.2v11.2h9.8v9.2h-9.8v12.3c0,4.1,1.9,6.5,5.4,6.5h0Z"/>
</svg>